<svg width="22" height="31" viewBox="0 0 22 31" fill="none" xmlns="http://www.w3.org/2000/svg">
<path d="M18.5978 12.8775C19.2922 10.9427 21.2923 5.34599 21.2923 3.55362C21.2923 1.97491 20.3605 0.651397 18.6987 0.651397C16.0517 0.651397 13.6777 8.46781 12.9358 10.3314C12.3601 8.63993 9.6656 0.0935059 7.2916 0.0935059C5.44581 0.0935059 4.57929 1.45262 4.57929 3.16191C4.57929 5.25697 6.60907 10.6875 7.34501 12.7766C6.9711 12.6401 6.56752 12.5214 6.15801 12.5214C4.76921 12.5214 3.2914 14.2485 3.2914 15.6432C3.2914 16.1715 3.58221 16.9133 3.7662 17.4059C1.57618 17.9994 0.733405 19.4595 0.733405 21.6613C0.72747 25.9464 4.78702 30.4808 10.4965 30.4808C17.4998 30.4808 21.8561 25.2224 21.8561 18.4386C21.8561 15.8806 21.4466 13.5719 18.5978 12.8775V12.8775ZM16.4968 6.50332C16.7342 5.77331 17.7491 2.68711 18.6987 2.68711C19.2091 2.68711 19.3456 3.21532 19.3456 3.63671C19.3456 4.7703 17.0547 11.0317 16.5502 12.4205L14.5323 12.0644L16.4968 6.50332V6.50332ZM6.44289 2.96012C6.44289 2.25385 7.30347 0.247816 9.1908 5.75551L11.2443 11.7083C10.3185 11.6312 9.60032 11.5303 9.14332 11.7914C8.4964 10.0821 6.44289 4.68721 6.44289 2.96012V2.96012ZM6.30638 14.5749C8.04534 14.5749 10.2888 20.1895 10.2888 20.9491C10.2888 21.2518 9.99796 21.6257 9.65967 21.6257C8.41925 21.6257 5.09564 17.0617 5.09564 15.8272C5.10157 15.3702 5.84939 14.5749 6.30638 14.5749V14.5749ZM17.2446 25.6319C15.5175 27.5311 13.3097 28.5163 10.7339 28.5163C7.20851 28.5163 4.42498 26.5815 3.08367 23.2757C2.06878 20.6999 3.3092 19.2221 4.30628 19.2221C4.98288 19.2221 7.529 22.8009 7.529 23.5605C7.529 23.8514 7.072 24.0532 6.8346 24.0532C5.87906 24.0532 5.50516 23.1332 3.80181 21.0026C2.03911 22.7653 5.01849 26.1601 7.26192 26.1601C8.81096 26.1601 9.81991 24.7238 9.51723 23.6674C9.73682 23.6674 10.0098 23.6852 10.2116 23.6318C10.2769 25.2402 10.7517 27.1572 12.6865 27.2937C12.6865 27.2403 12.8052 26.8723 12.8052 26.8545C12.8052 25.8218 12.1761 24.9197 12.1761 23.8692C12.1761 22.1896 13.464 20.5634 14.7697 19.6138C15.2445 19.2577 15.8202 19.0381 16.3781 18.8363C16.9538 18.6167 17.5651 18.3615 18.0043 17.9223C17.939 17.2576 17.666 16.67 17.0013 16.67C15.3573 16.67 9.84365 16.9074 9.84365 14.3138C9.84365 13.9162 9.84959 13.5363 10.8763 13.5363C12.7934 13.5363 17.6601 14.0111 19.0845 15.2634C20.1587 16.2189 20.5267 21.9818 17.2446 25.6319V25.6319ZM11.3927 18.1538C11.9684 18.3377 12.5619 18.3912 13.1554 18.5099C12.7162 18.8303 12.3245 19.2221 11.9506 19.6434C11.7844 19.139 11.5826 18.6464 11.3927 18.1538V18.1538Z" fill="#88E189"/>
</svg>