<svg width="1512" height="1055" viewBox="0 0 1512 1055" fill="none" xmlns="http://www.w3.org/2000/svg">
<path d="M-1 190.734C58.3985 190.734 67.3118 258.497 108.14 258.497C157.881 258.497 181.749 334.617 217.28 334.617C252.811 334.617 279.052 295.11 326.42 295.11C373.788 295.11 373.329 393.25 435.56 393.25C497.79 393.25 512.958 502.048 544.7 502.048C576.441 502.048 576.452 464.651 653.84 464.651C731.228 464.651 708.552 554.833 762.98 554.833C817.407 554.833 793.967 601.972 872.12 601.972C950.272 601.972 950.272 642.406 981.259 642.406C1003.72 642.406 1052.2 652.881 1092.2 652.881C1156.99 652.881 1142.99 734.197 1199.54 734.197C1256.09 734.197 1249.21 824.266 1308.68 824.266C1368.15 824.266 1381.86 897.706 1417.83 897.706C1453.8 897.706 1453.91 1054.01 1526.97 1054.01V35H-1V190.734Z" fill="white"/>
<path d="M-1 105.497C58.3985 105.497 67.3118 130.004 108.14 130.004C157.881 130.004 181.749 154.307 217.28 154.307C252.811 154.307 279.052 118.183 326.42 118.183C373.788 118.183 373.329 168.43 435.56 168.43C497.79 168.43 512.958 224.129 544.7 224.129C576.441 224.129 576.452 204.982 653.84 204.982C731.228 204.982 708.552 251.163 762.98 251.163C817.407 251.163 793.967 275.293 872.12 275.293C950.272 275.293 950.272 311.651 981.259 311.651C1003.72 311.651 1052.2 301.359 1092.2 301.359C1156.99 301.359 1142.99 342.995 1199.54 342.995C1256.09 342.995 1249.21 389.115 1308.68 389.115C1368.15 389.115 1381.86 426.716 1417.83 426.716C1453.8 426.716 1453.91 506.738 1526.97 506.738V-15H-1V105.497Z" fill="#FAFAFA"/>
</svg>
