<svg width="58" height="58" viewBox="0 0 58 58" fill="none" xmlns="http://www.w3.org/2000/svg">
<path d="M48.0915 46.9317C48.1194 47.1038 48.1097 47.2798 48.0632 47.4478C48.0166 47.6158 47.9342 47.7717 47.8218 47.9049C47.7093 48.038 47.5693 48.1452 47.4114 48.2192C47.2536 48.2932 47.0816 48.3321 46.9073 48.3334H11.0923C10.918 48.3321 10.746 48.2932 10.5882 48.2192C10.4303 48.1452 10.2904 48.038 10.1779 47.9049C10.0654 47.7717 9.98304 47.6158 9.93648 47.4478C9.88992 47.2798 9.88026 47.1038 9.90815 46.9317L11.3098 38.6667H46.6898L48.0915 46.9317Z" fill="#54C055"/>
<path opacity="0.4" d="M50.6992 20.7157L46.6899 38.6208V38.6667H11.3099V38.6184L7.30068 20.7157C7.20798 20.2587 7.25086 19.7845 7.42404 19.3516C7.59722 18.9186 7.89316 18.5457 8.27546 18.2787C8.65776 18.0116 9.10976 17.8622 9.57588 17.8486C10.042 17.8351 10.5019 17.958 10.8991 18.2024L16.9166 21.8274C17.4436 22.1555 18.0784 22.2634 18.6842 22.1278C19.29 21.9922 19.8182 21.6239 20.1549 21.1024L27.0183 10.7349C27.2344 10.4068 27.5286 10.1376 27.8745 9.95125C28.2204 9.76495 28.6071 9.66742 28.9999 9.66742C29.3928 9.66742 29.7795 9.76495 30.1254 9.95125C30.4712 10.1376 30.7654 10.4068 30.9816 10.7349L37.8449 21.1265C38.185 21.6371 38.7085 21.9973 39.3069 22.1323C39.9054 22.2673 40.5328 22.1667 41.0591 21.8515L47.1008 18.2024C47.4979 17.958 47.9579 17.8351 48.424 17.8486C48.8901 17.8622 49.3421 18.0116 49.7244 18.2787C50.1067 18.5457 50.4026 18.9186 50.5758 19.3516C50.749 19.7845 50.7919 20.2587 50.6992 20.7157Z" fill="#54C055"/>
</svg>
