<svg width="5" height="17" viewBox="0 0 5 17" fill="none" xmlns="http://www.w3.org/2000/svg">
<path d="M2.5 4.5C1.39543 4.5 0.5 3.60457 0.5 2.5C0.5 1.39543 1.39543 0.5 2.5 0.5C3.60457 0.5 4.5 1.39543 4.5 2.5C4.5 3.60457 3.60457 4.5 2.5 4.5Z" fill="#9CA3AF"/>
<path d="M2.5 10.5C1.39543 10.5 0.5 9.60457 0.5 8.5C0.5 7.39543 1.39543 6.5 2.5 6.5C3.60457 6.5 4.5 7.39543 4.5 8.5C4.5 9.60457 3.60457 10.5 2.5 10.5Z" fill="#9CA3AF"/>
<path d="M2.5 16.5C1.39543 16.5 0.5 15.6046 0.5 14.5C0.5 13.3954 1.39543 12.5 2.5 12.5C3.60457 12.5 4.5 13.3954 4.5 14.5C4.5 15.6046 3.60457 16.5 2.5 16.5Z" fill="#9CA3AF"/>
</svg>
