<svg width="58" height="58" viewBox="0 0 58 58" fill="none" xmlns="http://www.w3.org/2000/svg">
<path opacity="0.4" d="M29.0002 53.1667C24.2205 53.1667 19.5481 51.7494 15.5739 49.0939C11.5997 46.4384 8.5022 42.6641 6.67308 38.2482C4.84397 33.8324 4.36539 28.9732 5.29786 24.2854C6.23034 19.5975 8.53199 15.2914 11.9118 11.9116C15.2915 8.53187 19.5976 6.23022 24.2855 5.29774C28.9734 4.36526 33.8325 4.84385 38.2484 6.67296C42.6642 8.50208 46.4386 11.5996 49.094 15.5738C51.7495 19.548 53.1668 24.2203 53.1668 29.0001C53.1598 35.4073 50.6114 41.5501 46.0808 46.0807C41.5502 50.6113 35.4074 53.1597 29.0002 53.1667Z" fill="#54C055"/>
<path d="M53.087 30.96C52.4395 30.8515 51.7749 30.9132 51.1585 31.139C50.542 31.3648 49.9949 31.747 49.5707 32.2481C48.3962 33.5748 46.7843 32.9199 44.1719 28.1011C41.6682 23.4876 43.9616 21.4576 44.8751 18.6374C45.6557 16.3295 43.5556 10.5271 42.2651 8.8064L42.2893 8.83056C45.6312 11.0285 48.3746 14.0221 50.2733 17.5427C52.1719 21.0632 53.1661 25.0002 53.1667 29.0001C53.1667 29.6526 53.1426 30.3292 53.0942 30.9576L53.087 30.96Z" fill="#54C055"/>
<path d="M34.6069 52.5142C32.7706 52.9539 30.8884 53.1729 29.0002 53.1667C28.1544 53.1667 27.3327 53.1184 26.5111 53.0459C27.1339 51.1125 27.0044 49.0154 26.1486 47.1734C24.3602 44.515 19.7202 44.4667 19.5511 41.1075C19.6651 39.1408 19.6085 37.1679 19.3819 35.2109C18.9227 33.2775 7.10524 32.3979 7.70941 17.6079V17.5934C9.77069 13.7383 12.8399 10.5152 16.5896 8.26798C20.3393 6.02072 24.6287 4.83363 29.0002 4.83337C30.7136 4.83652 32.4222 5.01467 34.0994 5.36504C34.0828 6.3356 33.759 7.27592 33.1746 8.05096C32.5902 8.82601 31.7751 9.3959 30.8466 9.67879C24.0122 11.9166 29.4642 20.8245 24.9161 21.7621C23.4057 22.0715 20.8271 19.534 19.3771 19.8844C19.0006 19.9603 18.652 20.1379 18.3693 20.3979C18.0866 20.6579 17.8805 20.9903 17.7735 21.3592C17.6664 21.728 17.6623 22.1192 17.7619 22.4901C17.8614 22.8611 18.0606 23.1977 18.3379 23.4635C20.3921 25.5925 19.4254 26.4142 20.177 28.1325C20.9286 29.8507 23.3187 30.0513 26.1413 29.7299C28.964 29.4085 30.2327 29.2635 32.2192 31.3321C34.2057 33.4008 33.8046 36.325 36.5958 36.6488C39.3871 36.9726 42.5577 38.2196 42.1542 40.6097C41.5911 43.952 35.4092 45.7137 34.5997 52.5142" fill="#54C055"/>
</svg>
