<svg width="62" height="62" viewBox="0 0 62 62" fill="none" xmlns="http://www.w3.org/2000/svg">
<g clip-path="url(#clip0_444_15687)">
<path d="M10.3332 37.5305H2.58317C1.8698 37.5305 1.2915 38.1088 1.2915 38.8222V56.9055C1.2915 57.6189 1.8698 58.1972 2.58317 58.1972H10.3332C11.0465 58.1972 11.6248 57.6189 11.6248 56.9055V38.8222C11.6248 38.1088 11.0465 37.5305 10.3332 37.5305Z" stroke="url(#paint0_linear_444_15687)" stroke-width="2.58333" stroke-linecap="round" stroke-linejoin="round"/>
<path d="M11.625 54.3222C39.3416 63.5628 29.1193 63.6583 60.7083 47.8638C59.8361 46.6919 58.6254 45.8158 57.2394 45.3538C55.8535 44.8919 54.3592 44.8663 52.9583 45.2805L41.5038 49.0832" stroke="url(#paint1_linear_444_15687)" stroke-width="2.58333" stroke-linecap="round" stroke-linejoin="round"/>
<path d="M11.625 40.1139H19.375C23.7721 40.2692 27.9382 42.1208 31 45.2806H38.75C39.1279 45.2127 39.5161 45.2286 39.8872 45.327C40.2584 45.4255 40.6033 45.6043 40.8979 45.8506C41.1924 46.097 41.4293 46.4049 41.5918 46.7528C41.7544 47.1006 41.8386 47.4799 41.8386 47.8639C41.8386 48.2479 41.7544 48.6271 41.5918 48.975C41.4293 49.3229 41.1924 49.6308 40.8979 49.8772C40.6033 50.1235 40.2584 50.3022 39.8872 50.4007C39.5161 50.4992 39.1279 50.5151 38.75 50.4472H24.5417" stroke="url(#paint2_linear_444_15687)" stroke-width="2.58333" stroke-linecap="round" stroke-linejoin="round"/>
<path d="M17.7003 31.3203C15.8926 27.7242 15.1743 23.6785 15.6335 19.68C16.0928 15.6814 17.7096 11.9039 20.2856 8.81135C22.8615 5.71876 26.2844 3.44565 30.1341 2.27107C33.9837 1.0965 38.0926 1.07159 41.9562 2.19939C45.8198 3.3272 49.2701 5.55864 51.8833 8.61976C54.4966 11.6809 56.1591 15.4385 56.6668 19.4312C57.1745 23.4239 56.5053 27.478 54.7413 31.0957C52.9773 34.7134 50.1954 37.7373 46.737 39.7962" stroke="url(#paint3_linear_444_15687)" stroke-width="2.58333" stroke-linecap="round" stroke-linejoin="round"/>
<path d="M51.445 8.11417C51.191 9.48233 50.6616 10.7846 49.8889 11.9419C49.1162 13.0991 48.1163 14.0873 46.95 14.8463C43.3566 13.9473 39.7632 16.6392 40.6596 16.6392C41.556 16.6392 42.4679 20.2352 42.4679 20.2352C43.3669 21.1342 45.1649 20.2352 45.1649 20.2352C47.4099 22.4801 41.5689 26.5282 41.5689 27.4246C41.5689 28.321 43.819 28.7731 42.4679 30.1216C41.7083 30.9088 40.7898 31.5252 39.7735 31.9299C39.7735 36.4223 35.2785 36.4223 34.3821 36.4223C33.4857 36.4223 31.6851 32.8263 31.6851 31.9299C31.6851 31.0335 32.5867 30.1216 32.5867 29.2355C32.5867 28.3494 30.7784 26.5411 30.7784 26.5411C30.7784 22.9451 28.0839 23.8441 25.3844 23.8441C22.6848 23.8441 22.6899 20.2352 22.6899 20.2352C22.6899 20.2352 22.6899 13.9473 27.1849 13.0509C31.6799 12.1545 31.6748 13.9473 31.6748 13.9473C33.4831 15.7557 37.0662 13.9473 38.8642 13.9473C38.8642 13.9473 39.7632 7.65692 37.9652 8.55592C36.1672 9.45492 34.5578 8.75742 34.3718 6.74759C34.1005 3.94725 42.2122 2.2655 42.2122 2.2655" stroke="url(#paint4_linear_444_15687)" stroke-width="2.58333" stroke-linecap="round" stroke-linejoin="round"/>
</g>
<defs>
<linearGradient id="paint0_linear_444_15687" x1="6.45817" y1="37.5305" x2="6.45817" y2="58.1972" gradientUnits="userSpaceOnUse">
<stop offset="0.291667" stop-color="#1BCA52"/>
<stop offset="1" stop-color="#0F72EC"/>
</linearGradient>
<linearGradient id="paint1_linear_444_15687" x1="36.1667" y1="44.9875" x2="36.1667" y2="60.6346" gradientUnits="userSpaceOnUse">
<stop offset="0.291667" stop-color="#1BCA52"/>
<stop offset="1" stop-color="#0F72EC"/>
</linearGradient>
<linearGradient id="paint2_linear_444_15687" x1="26.7318" y1="40.1139" x2="26.7318" y2="50.4886" gradientUnits="userSpaceOnUse">
<stop offset="0.291667" stop-color="#1BCA52"/>
<stop offset="1" stop-color="#0F72EC"/>
</linearGradient>
<linearGradient id="paint3_linear_444_15687" x1="36.1652" y1="1.37146" x2="36.1652" y2="39.7962" gradientUnits="userSpaceOnUse">
<stop offset="0.291667" stop-color="#1BCA52"/>
<stop offset="1" stop-color="#0F72EC"/>
</linearGradient>
<linearGradient id="paint4_linear_444_15687" x1="37.0675" y1="2.2655" x2="37.0675" y2="36.4223" gradientUnits="userSpaceOnUse">
<stop offset="0.291667" stop-color="#1BCA52"/>
<stop offset="1" stop-color="#0F72EC"/>
</linearGradient>
<clipPath id="clip0_444_15687">
<rect width="62" height="62" fill="white"/>
</clipPath>
</defs>
</svg>
