<svg width="58" height="58" viewBox="0 0 58 58" fill="none" xmlns="http://www.w3.org/2000/svg">
<path opacity="0.4" d="M33.3135 32.3568H24.686C23.0832 32.2488 21.4759 32.4849 19.9719 33.049C18.4678 33.6132 17.1018 34.4925 15.9655 35.628C14.8291 36.7634 13.9487 38.1287 13.3833 39.6323C12.8179 41.1359 12.5806 42.743 12.6873 44.3459C12.573 45.3803 12.6941 46.4273 13.0414 47.4084C13.3888 48.3895 13.9535 49.2794 14.6933 50.0115C15.433 50.7436 16.3288 51.299 17.3134 51.6361C18.2981 51.9732 19.3463 52.0834 20.3795 51.9584H37.62C38.6533 52.0834 39.7014 51.9732 40.6861 51.6361C41.6707 51.299 42.5665 50.7436 43.3062 50.0115C44.046 49.2794 44.6107 48.3895 44.9581 47.4084C45.3055 46.4273 45.4265 45.3803 45.3123 44.3459C45.4189 42.743 45.1816 41.1359 44.6162 39.6323C44.0508 38.1287 43.1704 36.7634 42.034 35.628C40.8977 34.4925 39.5317 33.6132 38.0276 33.049C36.5236 32.4849 34.9163 32.2488 33.3135 32.3568Z" fill="#54C055"/>
<path d="M29.0194 27.8207C30.6937 27.814 32.3285 27.3114 33.7174 26.3763C35.1063 25.4413 36.187 24.1157 36.8231 22.5669C37.4592 21.0181 37.6222 19.3156 37.2914 17.6742C36.9607 16.0329 36.1511 14.5263 34.9648 13.3448C33.7785 12.1632 32.2687 11.3596 30.6261 11.0354C28.9835 10.7112 27.2816 10.881 25.7354 11.5232C24.1891 12.1655 22.8678 13.2515 21.9383 14.6441C21.0088 16.0367 20.5127 17.6735 20.5127 19.3478C20.5204 21.5985 21.4201 23.7542 23.0148 25.3425C24.6094 26.9308 26.7687 27.822 29.0194 27.8207Z" fill="#54C055"/>
<path opacity="0.4" d="M54.3747 30.5708C54.4657 31.363 54.3761 32.1654 54.1128 32.918C53.8494 33.6706 53.4192 34.3539 52.8542 34.9165C52.2892 35.4792 51.6042 35.9066 50.8505 36.1669C50.0968 36.4271 49.294 36.5133 48.5022 36.4191H47.4872C47.3441 36.4215 47.2035 36.3815 47.083 36.3041C46.9626 36.2267 46.8678 36.1153 46.8106 35.9841C45.8758 34.2849 44.5874 32.8059 43.0324 31.647C41.4774 30.488 39.6919 29.676 37.7964 29.2658C37.6694 29.2406 37.5514 29.1819 37.4548 29.0957C37.3581 29.0095 37.2864 28.8989 37.2469 28.7756C37.2074 28.6523 37.2017 28.5206 37.2304 28.3943C37.259 28.268 37.3209 28.1517 37.4097 28.0575C39.1041 26.4627 40.2896 24.4029 40.8172 22.1366C40.8551 21.979 40.9447 21.8385 41.0717 21.7378C41.1988 21.637 41.3559 21.5817 41.5181 21.5808H45.4089C46.6084 21.5034 47.8107 21.6831 48.9352 22.1079C50.0597 22.5326 51.0805 23.1926 51.9293 24.0438C52.7782 24.8949 53.4354 25.9175 53.8572 27.0431C54.2789 28.1687 54.4553 29.3715 54.3747 30.5708Z" fill="#54C055"/>
<path d="M48.7681 12.4942C48.7694 14.2081 48.0907 15.8525 46.8811 17.0667C45.6714 18.2809 44.0295 18.9657 42.3156 18.9708C42.1368 18.9708 41.9603 18.9708 41.7888 18.9467C41.6016 18.9416 41.4231 18.8665 41.2885 18.7364C41.1759 18.6273 41.1086 18.4797 41.1 18.3232C40.9753 16.7543 40.5394 15.226 39.8179 13.8273C39.0963 12.4286 38.1036 11.1876 36.8974 10.1766C36.7692 10.0897 36.6786 9.95767 36.6437 9.80683C36.5982 9.64515 36.6164 9.47221 36.6944 9.3235C37.394 8.07756 38.4872 7.09896 39.8026 6.54107C41.1181 5.98318 42.5815 5.87755 43.9635 6.24073C45.3455 6.60391 46.5679 7.41538 47.4391 8.54793C48.3103 9.68048 48.7811 11.0701 48.7778 12.499L48.7681 12.4942Z" fill="#54C055"/>
<path opacity="0.4" d="M3.6248 30.5708C3.53387 31.363 3.62342 32.1654 3.88676 32.918C4.15009 33.6706 4.58037 34.3539 5.14535 34.9165C5.71032 35.4792 6.39533 35.9066 7.14902 36.1669C7.90271 36.4271 8.70553 36.5133 9.4973 36.4191H10.5123C10.6554 36.4215 10.7961 36.3815 10.9165 36.3041C11.0369 36.2267 11.1317 36.1153 11.189 35.9841C12.1238 34.2849 13.4121 32.8059 14.9671 31.647C16.5221 30.488 18.3076 29.676 20.2031 29.2658C20.3302 29.2406 20.4481 29.1819 20.5448 29.0957C20.6414 29.0095 20.7132 28.8989 20.7526 28.7756C20.7921 28.6523 20.7978 28.5206 20.7692 28.3943C20.7405 28.268 20.6786 28.1517 20.5898 28.0575C18.8954 26.4627 17.7099 24.4029 17.1823 22.1366C17.1445 21.979 17.0549 21.8385 16.9278 21.7378C16.8008 21.637 16.6436 21.5817 16.4815 21.5808H12.5906C11.3911 21.5034 10.1888 21.6831 9.06434 22.1079C7.93985 22.5326 6.91903 23.1926 6.0702 24.0438C5.22138 24.8949 4.56411 25.9175 4.14238 27.0431C3.72065 28.1687 3.54419 29.3715 3.6248 30.5708Z" fill="#54C055"/>
<path d="M9.23136 12.4942C9.23008 14.2081 9.90871 15.8525 11.1184 17.0667C12.328 18.2809 13.9699 18.9657 15.6839 18.9708C15.8627 18.9708 16.0391 18.9708 16.2107 18.9467C16.3979 18.9416 16.5763 18.8665 16.7109 18.7364C16.8235 18.6273 16.8908 18.4797 16.8994 18.3232C17.0242 16.7543 17.46 15.226 18.1816 13.8273C18.9031 12.4286 19.8959 11.1876 21.102 10.1766C21.2302 10.0897 21.3209 9.95767 21.3558 9.80683C21.4012 9.64515 21.3831 9.47221 21.305 9.3235C20.6055 8.07756 19.5123 7.09896 18.1968 6.54107C16.8813 5.98318 15.4179 5.87755 14.036 6.24073C12.654 6.60391 11.4316 7.41538 10.5604 8.54793C9.68912 9.68048 9.2183 11.0701 9.2217 12.499L9.23136 12.4942Z" fill="#54C055"/>
</svg>
