<svg width="58" height="58" viewBox="0 0 58 58" fill="none" xmlns="http://www.w3.org/2000/svg">
<path opacity="0.4" d="M13.9996 40.0683C12.9512 38.1258 12.2988 35.9945 12.0804 33.7979C11.8619 31.6014 12.0818 29.3833 12.7272 27.2724C13.3727 25.1614 14.4308 23.1996 15.8402 21.5008C17.2497 19.8019 18.9824 18.3999 20.9379 17.3758C25.2734 15.0558 29.6596 14.5967 34.9546 12.7842C37.7869 11.7843 40.2368 9.92572 41.9629 7.46749C42.0084 7.39298 42.0743 7.33308 42.1528 7.29488C42.2314 7.25668 42.3192 7.24178 42.4059 7.25195C42.4926 7.26212 42.5746 7.29694 42.6421 7.35227C42.7097 7.4076 42.7599 7.48114 42.787 7.56416C44.4786 12.1317 51.2912 33.2775 37.1416 43.4275C29.9956 48.5508 21.298 45.53 17.6391 43.8383C16.0889 42.9575 14.8253 41.6486 13.9996 40.0683Z" fill="#54C055"/>
<path d="M15.2102 52.5625C14.942 52.5609 14.6775 52.5 14.4356 52.3843C14.1937 52.2685 13.9804 52.1007 13.8109 51.8929C13.6414 51.6851 13.5199 51.4424 13.4552 51.1821C13.3905 50.9219 13.384 50.6505 13.4364 50.3875C16.5904 38.9836 23.5378 28.9956 33.1322 22.0714C33.3226 21.9286 33.5393 21.8247 33.7699 21.7656C34.0005 21.7066 34.2404 21.6935 34.476 21.7271C34.7117 21.7608 34.9384 21.8405 35.1432 21.9618C35.348 22.0831 35.5269 22.2435 35.6697 22.4339C35.8125 22.6243 35.9164 22.841 35.9755 23.0716C36.0346 23.3022 36.0477 23.5421 36.014 23.7777C35.9803 24.0134 35.9006 24.2401 35.7793 24.4449C35.6581 24.6497 35.4976 24.8286 35.3072 24.9714C26.4681 31.4159 20.0224 40.6161 16.9841 51.1246C16.8977 51.5311 16.6745 51.8957 16.3516 52.1575C16.0287 52.4192 15.6258 52.5622 15.2102 52.5625Z" fill="#54C055"/>
</svg>
