<svg width="58" height="58" viewBox="0 0 58 58" fill="none" xmlns="http://www.w3.org/2000/svg">
<path opacity="0.4" d="M47.3185 13.2434C46.5324 12.3243 45.6759 11.4678 44.7568 10.6817C40.3788 6.9089 34.7916 4.83362 29.0122 4.83362C23.2329 4.83362 17.6457 6.9089 13.2677 10.6817C12.3428 11.4616 11.4858 12.3185 10.706 13.2434C6.91825 17.619 4.8335 23.2127 4.8335 29C4.8335 34.7874 6.91825 40.381 10.706 44.7567C11.4858 45.6815 12.3428 46.5385 13.2677 47.3184C17.6457 51.0912 23.2329 53.1664 29.0122 53.1664C34.7916 53.1664 40.3788 51.0912 44.7568 47.3184C45.6759 46.5322 46.5324 45.6758 47.3185 44.7567C51.0917 40.3741 53.1669 34.7831 53.1669 29C53.1669 23.217 51.0917 17.6259 47.3185 13.2434ZM29.0002 39.73C26.7703 39.7321 24.5967 39.0302 22.7893 37.7242C21.8 37.0449 20.9405 36.1937 20.2518 35.2109C18.9626 33.3965 18.27 31.2258 18.27 29C18.27 26.7742 18.9626 24.6036 20.2518 22.7892C20.9405 21.8064 21.8 20.9551 22.7893 20.2759C24.5967 18.9699 26.7703 18.2679 29.0002 18.27C31.2326 18.275 33.4095 18.9668 35.2352 20.2517C36.2198 20.9463 37.078 21.8046 37.7727 22.7892C39.0619 24.6036 39.7545 26.7742 39.7545 29C39.7545 31.2258 39.0619 33.3965 37.7727 35.2109C37.078 36.1955 36.2198 37.0537 35.2352 37.7484C33.4095 39.0332 31.2326 39.7251 29.0002 39.73Z" fill="#54C055"/>
<path d="M47.3187 13.2433L37.8937 22.6925C37.8454 22.7166 37.8212 22.765 37.7729 22.7891C37.0782 21.8045 36.22 20.9463 35.2354 20.2516C35.2599 20.2058 35.2927 20.1648 35.332 20.1308L44.757 10.6816C45.6761 11.4678 46.5325 12.3243 47.3187 13.2433Z" fill="#54C055"/>
<path d="M22.7894 37.7241C22.7658 37.7777 22.7331 37.8268 22.6927 37.8691L13.2677 47.3183C12.3429 46.5385 11.4859 45.6815 10.7061 44.7566L20.1311 35.3075C20.1596 35.2629 20.2021 35.2289 20.2519 35.2108C20.9406 36.1936 21.8 37.0449 22.7894 37.7241Z" fill="#54C055"/>
<path d="M22.7894 20.2758C21.8 20.9551 20.9406 21.8063 20.2519 22.7891C20.2036 22.765 20.1794 22.7166 20.1311 22.6925L10.7061 13.2433C11.4859 12.3185 12.3429 11.4615 13.2677 10.6816L22.6927 20.1308C22.7331 20.1732 22.7658 20.2222 22.7894 20.2758Z" fill="#54C055"/>
<path d="M47.3187 44.7566C46.5325 45.6757 45.6761 46.5322 44.757 47.3183L35.332 37.8691C35.2927 37.8351 35.2599 37.7942 35.2354 37.7483C36.22 37.0537 37.0782 36.1954 37.7729 35.2108C37.8187 35.2354 37.8597 35.2681 37.8937 35.3075L47.3187 44.7566Z" fill="#54C055"/>
</svg>
