<svg width="280" height="80" viewBox="0 0 280 80" fill="none" xmlns="http://www.w3.org/2000/svg">
<g clip-path="url(#clip0_590_3876)">
<mask id="mask0_590_3876" style="mask-type:luminance" maskUnits="userSpaceOnUse" x="0" y="15" width="95" height="55">
<path d="M94.249 40.1845C93.7443 40.5513 93.2153 41.0515 92.3059 41.2003C91.1337 40.9011 90.399 41.3259 89.4772 41.8842C85.5543 40.9422 83.4111 36.5681 79.9907 34.6487C78.3607 33.6628 76.4753 33.0352 74.9386 31.945C74.9047 31.8971 74.8713 31.8498 74.8374 31.8019C73.8969 30.5963 73.0486 28.8599 71.3553 28.718C70.6511 28.7957 70.0215 28.8763 69.4479 28.9523C62.9941 27.9326 56.7579 16.9387 51.6566 15.421C49.6214 14.0294 46.9719 17.8497 44.9615 17.5218C43.7617 16.2204 42.4177 16.15 39.4889 19.0751C35.4208 22.5427 29.6401 23.3607 26.6096 28.1179C25.3549 29.8757 23.8369 31.6825 21.7469 32.3033C20.4249 31.0487 19.1007 30.3298 16.5806 31.3259C13.6795 32.4718 11.2967 34.8239 9.07557 36.9298C6.35989 39.8346 3.27345 42.3851 0.280837 44.3085C0.237884 45.1282 0.167236 45.8521 0.167236 46.6826C0.167236 53.9902 2.15214 60.8449 5.15663 67.0072L5.18771 66.9864L6.2152 66.099L7.24722 65.2387L8.28715 64.641L9.33442 64.361L10.3851 64.2753H11.4369L12.4898 64.3689L13.5433 64.5869L14.5962 64.8331L15.6475 64.8973L16.6976 64.6466L17.7488 64.188L18.8017 63.8111L19.706 63.7582L19.8552 63.7491L20.9064 63.9999L21.9565 64.3244L23.0078 64.3779L24.0658 63.8866L25.1334 62.788L26.2112 61.3136L27.2924 59.9412L28.3679 59.1609L29.4288 59.2088L30.4732 59.9643L31.5058 61.0736L32.0523 61.6556L32.5344 62.1689L33.5647 63.0511L34.5979 63.7424L35.6299 64.3768L36.6574 65.0827L37.677 65.9306L38.6892 66.8872L38.6965 66.894L39.6986 67.8055L40.0609 68.0607C43.1157 65.7373 42.5341 58.7271 42.1159 55.6792C41.3523 54.9626 40.6758 54.1457 40.0869 53.335C39.1651 52.0674 38.4207 50.6792 37.8007 49.2488H37.7996C36.6642 49.4026 35.592 46.9209 35.0681 45.8978C34.5442 44.8747 34.2814 42.0611 35.0681 41.5152C35.2806 41.3676 35.4937 41.3496 35.6909 41.4014C35.6073 40.6448 35.5604 39.8859 35.5485 39.1282C36.3804 39.2352 37.2921 39.2482 38.2896 39.1366C41.6191 38.7636 44.9808 37.2352 46.6808 34.3647C47.2709 33.3687 47.6478 32.2622 48.1977 31.2436C48.7477 30.225 49.5237 29.2577 50.6071 28.838C50.8575 28.741 53.0583 27.8768 53.5715 27.4205C53.975 27.0616 54.2706 26.6824 54.4006 26.2723C54.6391 25.5168 53.8552 25.2329 53.6432 24.6176C53.5664 24.3957 53.6387 24.0616 53.7845 23.8768C54.1231 23.4492 54.7499 23.0514 55.3891 22.7314C54.8742 23.0864 54.4096 23.4898 54.1745 23.8914C54.0451 24.1123 54.0451 24.3962 54.1626 24.6233C54.4526 25.1855 55.4122 25.8019 55.2551 26.5608C55.1557 27.043 54.8064 27.5636 54.3667 28.0926C53.7489 28.8363 52.9515 29.5957 52.4106 30.2881C51.9793 30.8402 51.9042 31.5963 52.2359 32.2132C52.8096 33.2791 53.6596 34.1788 54.777 34.634C55.3523 34.8684 55.9695 34.9822 56.5533 35.1935C57.1372 35.4048 57.7114 35.7394 58.0177 36.2769C58.3229 36.8132 58.5292 37.6036 58.0335 37.9704C58.0324 37.9715 58.0335 37.9732 58.0347 37.9732C58.2867 37.9586 58.5281 37.9169 58.7592 37.8538C58.7756 38.1546 58.7841 38.4589 58.7841 38.7676C58.7841 39.6335 58.7349 40.5197 58.64 41.4132C58.8491 41.3468 59.078 41.3558 59.3069 41.5146C60.0936 42.0611 59.8314 44.8741 59.3069 45.8972C58.7875 46.9102 57.7312 49.353 56.6076 49.2505C55.9147 50.8702 55.063 52.397 54.0592 53.7502C53.7625 54.1502 53.4432 54.5406 53.1018 54.9119C52.7079 57.3767 51.6453 65.8821 55.2749 68.2235C56.0594 68.7295 56.9439 69.1571 57.864 69.5176L58.3907 69.4303L59.4521 69.1824L59.5217 69.1638L59.7585 68.9486L60.7707 67.992L61.7903 67.1441L62.8178 66.4382L63.8498 65.8038L64.8829 65.1125L65.9132 64.2303L66.9419 63.1345L67.9744 62.0252L69.0189 61.2697L70.0797 61.2218L71.1553 62.0021L72.2365 63.3745L73.3142 64.8489L74.3819 65.9475L75.4399 66.4387L76.4911 66.3852L77.5412 66.0607L78.5924 65.81L79.6459 65.8714L80.6989 66.2483L81.7501 66.7069L82.8002 66.9576L83.8514 66.8934L84.7461 66.6844L84.9044 66.6472L85.9578 66.4292L87.0108 66.3351H88.0626L89.1132 66.4218L90.0712 66.6782C92.9762 60.5993 94.5926 53.8037 94.5926 46.6257C94.5926 44.5079 94.5265 42.2268 94.2524 40.1839L94.249 40.1845Z" fill="white"/>
</mask>
<g mask="url(#mask0_590_3876)">
<path d="M47.9248 91.7966C73.2689 91.7966 93.8144 71.3163 93.8144 46.0527C93.8144 20.789 73.2689 0.308716 47.9248 0.308716C22.5806 0.308716 2.03516 20.789 2.03516 46.0527C2.03516 71.3163 22.5806 91.7966 47.9248 91.7966Z" fill="#1BCA52"/>
</g>
<path d="M6.60865 65.845C2.65692 57.7204 1.0456 48.2544 2.64901 38.318C5.49525 20.6757 22.3924 3.73811 40.0773 0.818094C68.8879 -3.93855 93.8145 18.0858 93.8145 45.913C93.8145 53.2821 92.0664 60.2444 88.9607 66.41" stroke="#0F72EC" stroke-width="0.261597" stroke-miterlimit="10"/>
<path d="M45.1386 43.0273C45.1386 43.0273 43.7358 43.4448 42.3511 43.2076C40.7234 42.9288 38.7967 41.7592 38.231 41.7366C38.6362 41.9333 39.6891 42.8854 41.1038 43.3485C42.3579 43.7586 43.9257 43.7479 45.1386 43.0273Z" fill="#1BCA52"/>
<path d="M49.6226 43.0274C49.6226 43.0274 51.0253 43.4448 52.41 43.2077C54.0377 42.9288 55.9644 41.7592 56.5302 41.7367C56.1249 41.9333 55.072 42.8854 53.6574 43.3485C52.4032 43.7586 50.8354 43.7479 49.6226 43.0274Z" fill="#1BCA52"/>
<path d="M163.587 69.7283C163.8 69.7283 164.021 69.69 164.225 69.614L164.178 68.8607C164.076 68.9086 163.91 68.9559 163.744 68.9559C163.236 68.9559 162.987 68.6506 162.987 68.1069V62.5942H162.1V68.183C162.1 69.1559 162.636 69.7278 163.588 69.7278L163.587 69.7283ZM158.257 65.357C159.08 65.357 159.682 65.872 159.845 66.597L156.601 67.2072V67.112C156.601 66.0534 157.29 65.357 158.257 65.357ZM158.446 68.943C157.594 68.943 156.963 68.5424 156.705 67.8461L160.733 67.0641C160.704 65.557 159.623 64.5846 158.236 64.5846C156.762 64.5846 155.691 65.6624 155.691 67.1599C155.691 68.6573 156.782 69.7447 158.418 69.7447C159.26 69.7447 159.958 69.4585 160.408 68.9244L159.911 68.3328C159.538 68.743 159.04 68.943 158.447 68.943H158.446Z" fill="#0F72EC"/>
<path d="M222.683 68.9429C221.707 68.9429 220.97 68.237 220.97 67.1593C220.97 66.0815 221.707 65.3852 222.683 65.3852C223.658 65.3852 224.386 66.0815 224.386 67.1593C224.386 68.237 223.658 68.9429 222.683 68.9429ZM222.683 69.7441C224.204 69.7441 225.314 68.6663 225.314 67.1593C225.314 65.6522 224.204 64.584 222.683 64.584C221.162 64.584 220.042 65.6522 220.042 67.1593C220.042 68.6663 221.162 69.7441 222.683 69.7441ZM219.252 68.4714C219.067 68.6179 218.818 68.7001 218.559 68.7001C218.06 68.7001 217.792 68.4077 217.792 67.886V65.4229H219.211V64.539H217.792V63.4781H216.905V67.9226C216.905 68.9012 217.469 69.441 218.457 69.441C218.855 69.441 219.261 69.3311 219.529 69.1024L219.252 68.4714ZM213.043 64.5638C212.245 64.5638 211.6 64.8595 211.23 65.3745V64.539H210.343V69.6663H211.23V67.0629C211.23 65.966 211.87 65.3846 212.859 65.3846C213.741 65.3846 214.245 65.8708 214.245 66.8629V69.6669H215.132V66.7581C215.132 65.2702 214.268 64.5643 213.043 64.5643V64.5638ZM206.677 65.3564C207.5 65.3564 208.102 65.8714 208.265 66.5964L205.021 67.2066V67.1114C205.021 66.0528 205.71 65.3564 206.677 65.3564ZM206.819 68.9424C205.967 68.9424 205.336 68.5418 205.077 67.8455L209.105 67.0635C209.077 65.5564 207.995 64.584 206.608 64.584C205.135 64.584 204.063 65.6618 204.063 67.1593C204.063 68.6567 205.154 69.7441 206.79 69.7441C207.632 69.7441 208.331 69.4579 208.78 68.9238L208.283 68.3322C207.91 68.7424 207.412 68.9424 206.819 68.9424H206.819ZM201.829 69.6658H202.715V64.5384H201.829V69.6658ZM202.322 63.6584C202.685 63.6584 202.943 63.3914 202.943 63.0483C202.943 62.7237 202.675 62.4663 202.322 62.4663C201.968 62.4663 201.7 62.7333 201.7 63.0674C201.7 63.4015 201.968 63.659 202.322 63.659V63.6584ZM198.132 64.5632C197.261 64.5632 196.545 64.9254 196.158 65.4978C195.819 64.8685 195.161 64.5632 194.377 64.5632C193.593 64.5632 192.973 64.8494 192.606 65.3643V64.5384H191.719V69.6658H192.606V67.0624C192.606 65.9655 193.21 65.384 194.13 65.384C194.964 65.384 195.443 65.8702 195.443 66.8624V69.6663H196.33V67.0629C196.33 65.966 196.934 65.3846 197.854 65.3846C198.689 65.3846 199.168 65.8708 199.168 66.8629V69.6669H200.232V66.7581C200.232 65.2702 199.38 64.5643 198.132 64.5643V64.5632ZM189.058 69.6658H189.945V64.5384H189.058V69.6658ZM189.539 63.6584C189.902 63.6584 190.161 63.3914 190.161 63.0483C190.161 62.7237 189.893 62.4663 189.539 62.4663C189.185 62.4663 188.917 62.7333 188.917 63.0674C188.917 63.4015 189.185 63.659 189.539 63.659V63.6584ZM187.345 64.5384L185.54 68.65L183.774 64.5384H182.803L185.055 69.6658H186.006L188.258 64.5384H187.345H187.345ZM179.971 68.9424C178.995 68.9424 178.259 68.2365 178.259 67.1587C178.259 66.0809 178.996 65.3846 179.971 65.3846C180.947 65.3846 181.674 66.0809 181.674 67.1587C181.674 68.2365 180.947 68.9424 179.971 68.9424ZM179.971 69.7435C181.492 69.7435 182.602 68.6658 182.602 67.1587C182.602 65.6517 181.492 64.5835 179.971 64.5835C178.45 64.5835 177.33 65.6517 177.33 67.1587C177.33 68.6658 178.45 69.7435 179.971 69.7435ZM174.01 64.5638C173.139 64.5638 172.422 64.926 172.035 65.4984C171.697 64.8691 171.038 64.5638 170.254 64.5638C169.471 64.5638 168.851 64.85 168.483 65.3649V64.539H167.596V69.6663H168.661V67.0629C168.661 65.966 169.265 65.3846 170.185 65.3846C171.019 65.3846 171.498 65.8708 171.498 66.8629V69.6669H172.385V67.0635C172.385 65.9666 172.989 65.3852 173.909 65.3852C174.744 65.3852 175.223 65.8714 175.223 66.8635V69.6674H176.11V66.7587C176.11 65.2708 175.258 64.5649 174.01 64.5649V64.5638Z" fill="#0F72EC"/>
<path d="M279.052 69.7283C279.265 69.7283 279.486 69.69 279.69 69.6139L279.644 68.8607C279.542 68.9086 279.376 68.9559 279.209 68.9559C278.701 68.9559 278.452 68.6505 278.452 68.1069V62.5942H277.565V68.1829C277.565 69.1559 278.101 69.7277 279.053 69.7277L279.052 69.7283ZM273.142 68.9429C272.166 68.9429 271.43 68.237 271.43 67.1593C271.43 66.0815 272.166 65.3852 273.142 65.3852C274.118 65.3852 274.845 66.0815 274.845 67.1593C274.845 68.237 274.108 68.9429 273.142 68.9429ZM274.727 64.539V65.3947C274.727 65.3947 273.783 64.584 273.065 64.584C271.582 64.584 270.501 65.6139 270.501 67.1593C270.501 68.7046 271.582 69.7441 273.065 69.7441C273.811 69.7441 274.463 69.4579 274.905 68.8855V69.6663H275.791V64.539H274.727ZM269.624 68.4714C269.439 68.6179 269.19 68.7001 268.931 68.7001C268.432 68.7001 268.164 68.4077 268.164 67.886V65.4229H269.583V64.539H268.164V63.4781H267.277V67.9226C267.277 68.9012 267.841 69.441 268.829 69.441C269.227 69.441 269.633 69.3311 269.901 69.1024L269.624 68.4714ZM263.592 64.5638C262.795 64.5638 262.15 64.8595 261.779 65.3745V64.539H260.893V69.6663H261.779V67.0629C261.779 65.966 262.419 65.3846 263.408 65.3846C264.29 65.3846 264.795 65.8708 264.795 66.8629V69.6669H265.681V66.7581C265.681 65.2702 264.817 64.5643 263.592 64.5643V64.5638ZM257.049 65.3564C257.872 65.3564 258.474 65.8714 258.637 66.5964L255.393 67.2066V67.1114C255.393 66.0528 256.082 65.3564 257.049 65.3564ZM257.278 68.9424C256.427 68.9424 255.795 68.5418 255.537 67.8455L259.565 67.0635C259.536 65.5564 258.455 64.584 257.068 64.584C255.595 64.584 254.523 65.6618 254.523 67.1593C254.523 68.6567 255.614 69.7441 257.25 69.7441C258.092 69.7441 258.791 69.4579 259.24 68.9238L258.743 68.3322C258.37 68.7424 257.872 68.9424 257.279 68.9424H257.278ZM252.378 69.6658H253.265V64.5384H252.378V69.6658ZM252.782 63.6584C253.145 63.6584 253.403 63.3914 253.403 63.0483C253.403 62.7237 253.136 62.4663 252.782 62.4663C252.428 62.4663 252.16 62.7333 252.16 63.0674C252.16 63.4015 252.428 63.659 252.782 63.659V63.6584ZM248.41 68.9418C247.443 68.9418 246.707 68.2359 246.707 67.1581C246.707 66.0804 247.444 65.384 248.41 65.384C249.375 65.384 250.122 66.0804 250.122 67.1581C250.122 68.2359 249.386 68.9418 248.41 68.9418ZM248.486 64.5835C247.768 64.5835 246.703 65.3942 246.703 65.3942V62.5936H245.816V69.6658H246.525V68.8849C247.089 69.4573 247.74 69.7435 248.486 69.7435C249.969 69.7435 251.05 68.7041 251.05 67.1587C251.05 65.6133 249.969 64.5835 248.486 64.5835ZM242.119 64.5632C241.248 64.5632 240.532 64.9254 240.145 65.4978C239.806 64.8685 239.148 64.5632 238.364 64.5632C237.58 64.5632 236.961 64.8494 236.593 65.3643V64.5384H235.706V69.6658H236.593V67.0624C236.593 65.9655 237.197 65.384 238.117 65.384C238.951 65.384 239.431 65.8702 239.431 66.8624V69.6663H240.317V67.0629C240.317 65.966 240.922 65.3846 241.842 65.3846C242.676 65.3846 243.155 65.8708 243.155 66.8629V69.6669H244.219V66.7581C244.219 65.2702 243.368 64.5643 242.119 64.5643V64.5632ZM231.331 68.9418C230.355 68.9418 229.619 68.2359 229.619 67.1581C229.619 66.0804 230.356 65.384 231.331 65.384C232.307 65.384 233.034 66.0804 233.034 67.1581C233.034 68.2359 232.297 68.9418 231.331 68.9418ZM232.868 64.5378V65.3936C232.868 65.3936 231.972 64.5829 231.254 64.5829C229.771 64.5829 228.69 65.6128 228.69 67.1581C228.69 68.7035 229.771 69.7429 231.254 69.7429C232 69.7429 232.651 69.4567 233.045 68.8843V69.6652H233.932V64.5378H232.868Z" fill="#0F72EC"/>
<path d="M149.681 68.943C148.705 68.943 147.969 68.237 147.969 67.1593C147.969 66.0815 148.705 65.3852 149.681 65.3852C150.658 65.3852 151.384 66.0815 151.384 67.1593C151.384 68.237 150.657 68.943 149.681 68.943ZM149.681 69.7441C151.203 69.7441 152.312 68.6663 152.312 67.1593C152.312 65.6522 151.202 64.5841 149.681 64.5841C148.161 64.5841 147.041 65.6522 147.041 67.1593C147.041 68.6663 148.161 69.7441 149.681 69.7441ZM143.156 68.943C142.18 68.943 141.444 68.237 141.444 67.1593C141.444 66.0815 142.18 65.3852 143.156 65.3852C144.133 65.3852 144.859 66.0815 144.859 67.1593C144.859 68.237 144.123 68.943 143.156 68.943ZM144.718 62.5942V65.3948C144.718 65.3948 143.797 64.5841 143.08 64.5841C141.597 64.5841 140.515 65.6139 140.515 67.1593C140.515 68.7047 141.597 69.7441 143.08 69.7441C143.826 69.7441 144.477 69.4579 144.895 68.8855V69.6663H145.782V62.5942H144.718ZM137.131 64.5638C136.333 64.5638 135.688 64.8596 135.317 65.3745V64.539H134.431V69.6663H135.317V67.063C135.317 65.966 135.957 65.3846 136.946 65.3846C137.829 65.3846 138.333 65.8708 138.333 66.863V69.6669H139.219V66.7582C139.219 65.2703 138.355 64.5643 137.131 64.5643V64.5638ZM130.087 68.9424C129.111 68.9424 128.375 68.2365 128.375 67.1587C128.375 66.081 129.111 65.3846 130.087 65.3846C131.063 65.3846 131.79 66.081 131.79 67.1587C131.79 68.2365 131.054 68.9424 130.087 68.9424ZM131.77 64.5384V65.3942C131.77 65.3942 130.728 64.5835 130.01 64.5835C128.527 64.5835 127.446 65.6134 127.446 67.1587C127.446 68.7041 128.527 69.7435 130.01 69.7435C130.756 69.7435 131.408 69.4573 131.947 68.8849V69.6658H132.657V64.5384H131.77ZM126.324 64.5384L124.519 68.65L122.752 64.5384H121.782L124.034 69.6658H124.985L127.237 64.5384H126.324H126.324ZM120.063 69.6658H120.95V64.5384H120.063V69.6658ZM120.5 63.6584C120.864 63.6584 121.122 63.3914 121.122 63.0483C121.122 62.7238 120.854 62.4663 120.5 62.4663C120.146 62.4663 119.879 62.7333 119.879 63.0674C119.879 63.4015 120.146 63.659 120.5 63.659V63.6584ZM118.644 68.7323C118.453 68.8849 118.194 68.9706 117.926 68.9706C117.41 68.9706 117.226 68.1216 117.226 68.1216V65.4218H118.645V64.5379H117.226V63.477H116.161V68.1593C116.214 69.1796 116.797 69.7424 117.821 69.7424C118.233 69.7424 118.654 69.628 118.931 69.3897L118.644 68.7317V68.7323ZM114.634 69.7272C114.846 69.7272 115.068 69.6889 115.271 69.6128L115.225 68.8596C115.123 68.9075 114.957 68.9548 114.791 68.9548C114.283 68.9548 114.033 68.6494 114.033 68.1058V62.5931H113.147V68.1818C113.147 69.1548 113.682 69.7266 114.634 69.7266L114.634 69.7272ZM110.486 64.5384V67.1514C110.486 68.2387 109.857 68.8297 108.875 68.8297C107.982 68.8297 107.471 68.334 107.471 67.3418V64.5379H106.584V67.4883C106.584 68.9976 107.454 69.7232 108.764 69.7232C109.481 69.7232 110.113 69.4235 110.486 68.8911V69.6652H111.373V64.5379H110.486V64.5384ZM103.087 69.7621C104.13 69.7621 105.029 69.3999 105.642 68.7131L105.02 68.1125C104.503 68.6562 103.872 68.9137 103.135 68.9137C101.623 68.9137 100.504 67.8263 100.504 66.348C100.504 64.8697 101.624 63.7824 103.135 63.7824C103.872 63.7824 104.503 64.0303 105.02 64.5739L105.642 63.9734C105.03 63.2866 104.13 62.9339 103.097 62.9339C101.059 62.9339 99.5474 64.3739 99.5474 66.348C99.5474 68.3221 101.059 69.7621 103.088 69.7621H103.087Z" fill="#0F72EC"/>
<path d="M265.468 49.3889V45.8909C265.468 41.7049 267.722 39.6689 271.304 39.6689C274.886 39.6689 277.139 41.7044 277.139 45.8909V49.3889H265.469H265.468ZM271.185 37.1427C266.031 37.1427 262.595 40.2396 262.595 46.1743V57.4425H265.468V51.8943H277.139V57.4425H279.832V46.1743C279.832 40.239 276.396 37.1427 271.185 37.1427ZM245.718 57.4431H259.544V54.9371H248.591V37.3973H245.718V57.4425V57.4431ZM225.25 49.3889V45.8909C225.25 41.7049 227.503 39.6689 231.085 39.6689C234.667 39.6689 236.921 41.7044 236.921 45.8909V49.3889H225.25H225.25ZM231.146 37.1427C225.992 37.1427 222.557 40.2396 222.557 46.1743V57.4425H225.25V51.8943H236.92V57.4425H239.793V46.1743C239.793 40.239 236.357 37.1427 231.146 37.1427ZM210.262 55.1163H203.704V48.4943H210.262C213.427 48.4943 215.137 49.5174 215.137 51.8194C215.137 54.1213 213.427 55.1163 210.262 55.1163ZM209.62 39.7241C212.563 39.7241 214.237 40.817 214.237 42.9455C214.237 45.074 212.563 46.1669 209.62 46.1669H203.704V39.7235H209.62V39.7241ZM214.362 47.0481C215.942 46.2751 217.062 44.7573 217.062 42.581C217.062 39.3449 214.477 37.3979 209.852 37.3979H200.832V57.4431H210.427C215.512 57.4431 218.126 55.4673 218.126 52.0306C218.126 49.3675 216.632 47.6779 214.362 47.0481ZM187.531 37.1427C184.575 37.1427 182.136 38.3472 180.874 40.4976C179.84 38.4046 177.631 37.1427 174.618 37.1427C171.605 37.1427 169.51 38.3184 168.333 40.2965V37.3973H165.64V57.4425H168.513V45.4571C168.513 41.4142 170.82 39.6937 174.022 39.6937C176.965 39.6937 178.927 41.3855 178.927 45.0554V57.4419H181.799V45.4565C181.799 41.4137 184.037 39.6931 187.193 39.6931C190.09 39.6931 192.213 41.3849 192.213 45.0548V57.4414H194.906V44.9686C194.906 39.8075 192.094 37.141 187.531 37.141V37.1427ZM145.172 49.3889V45.8909C145.172 41.7049 147.425 39.6689 151.007 39.6689C154.589 39.6689 156.843 41.7044 156.843 45.8909V49.3889H145.172H145.172ZM151.068 37.1427C145.914 37.1427 142.479 40.2396 142.479 46.1743V57.4425H145.172V51.8943H156.842V57.4425H159.715V46.1743C159.715 40.239 156.279 37.1427 151.068 37.1427ZM133.681 37.3973V45.9883H122.189V37.3973H119.317V57.4425H122.189V48.4937H133.681V57.4425H136.553V37.3973H133.681ZM107.256 57.6357C112.577 57.6357 115.051 54.998 115.051 51.9298C115.051 44.5607 102.855 47.6289 102.855 42.7258C102.855 40.9765 104.322 39.5432 107.745 39.5432C109.528 39.5432 111.513 40.0593 113.268 41.1776L114.217 38.8841C112.549 37.737 110.104 37.1066 107.745 37.1066C102.453 37.1066 100.037 39.7444 100.037 42.8413C100.037 50.296 112.233 47.1996 112.233 52.1027C112.233 53.8521 110.737 55.1997 107.256 55.1997C104.668 55.1997 102.108 54.225 100.612 52.8774L99.5479 55.114C101.159 56.6047 104.179 57.6374 107.256 57.6374V57.6357Z" fill="#0F72EC"/>
</g>
<defs>
<clipPath id="clip0_590_3876">
<rect width="279.664" height="91.7972" fill="white" transform="translate(0.168213)"/>
</clipPath>
</defs>
</svg>
