<svg width="46" height="46" viewBox="0 0 46 46" fill="none" xmlns="http://www.w3.org/2000/svg">
<path opacity="0.4" d="M45.0811 21.8376L38.4933 19.955C35.5266 19.1186 32.8242 17.5349 30.6447 15.3554C28.4651 13.1759 26.8814 10.4735 26.045 7.50678L24.1624 0.918945C24.0677 0.688459 23.9067 0.491322 23.6997 0.352584C23.4927 0.213846 23.2492 0.139771 23 0.139771C22.7508 0.139771 22.5073 0.213846 22.3003 0.352584C22.0933 0.491322 21.9323 0.688459 21.8376 0.918945L19.955 7.50678C19.1186 10.4735 17.5349 13.1759 15.3554 15.3554C13.1758 17.5349 10.4734 19.1186 7.50676 19.955L0.918925 21.8376C0.665975 21.9094 0.443347 22.0618 0.284822 22.2715C0.126297 22.4813 0.0405273 22.7371 0.0405273 23C0.0405273 23.263 0.126297 23.5187 0.284822 23.7285C0.443347 23.9383 0.665975 24.0907 0.918925 24.1624L7.50676 26.045C10.4734 26.8814 13.1758 28.4651 15.3554 30.6447C17.5349 32.8242 19.1186 35.5266 19.955 38.4933L21.8376 45.0811C21.9094 45.3341 22.0617 45.5567 22.2715 45.7152C22.4813 45.8737 22.7371 45.9595 23 45.9595C23.2629 45.9595 23.5187 45.8737 23.7285 45.7152C23.9383 45.5567 24.0906 45.3341 24.1624 45.0811L26.045 38.4933C26.8814 35.5266 28.4651 32.8242 30.6447 30.6447C32.8242 28.4651 35.5266 26.8814 38.4933 26.045L45.0811 24.1624C45.334 24.0907 45.5567 23.9383 45.7152 23.7285C45.8737 23.5187 45.9595 23.263 45.9595 23C45.9595 22.7371 45.8737 22.4813 45.7152 22.2715C45.5567 22.0618 45.334 21.9094 45.0811 21.8376Z" fill="#54C055"/>
</svg>
