<svg width="58" height="58" viewBox="0 0 58 58" fill="none" xmlns="http://www.w3.org/2000/svg">
<path d="M27.0667 8.19009L18.6422 19.0047C18.3601 19.3665 18.1852 19.8003 18.1377 20.2566C18.0902 20.713 18.1718 21.1735 18.3734 21.5857C18.5749 21.9979 18.8883 22.3451 19.2776 22.5878C19.667 22.8305 20.1167 22.9589 20.5756 22.9583H37.4391C37.8979 22.9589 38.3476 22.8305 38.737 22.5878C39.1264 22.3451 39.4397 21.9979 39.6413 21.5857C39.8428 21.1735 39.9245 20.713 39.8769 20.2566C39.8294 19.8003 39.6546 19.3665 39.3724 19.0047L30.9334 8.19009C30.7051 7.89464 30.4121 7.65544 30.077 7.49087C29.7418 7.3263 29.3734 7.24072 29.0001 7.24072C28.6267 7.24072 28.2583 7.3263 27.9231 7.49087C27.588 7.65544 27.295 7.89464 27.0667 8.19009Z" fill="#54C055"/>
<path opacity="0.4" d="M42.8039 33.3983L34.6815 22.9583H23.3232L15.1959 33.3983C14.8198 33.8792 14.5864 34.456 14.5221 35.0631C14.4577 35.6702 14.5652 36.2831 14.8321 36.8322C15.0991 37.3812 15.5148 37.8442 16.032 38.1685C16.5492 38.4929 17.1471 38.6654 17.7576 38.6666H27.1826V50.75C27.1826 51.2307 27.3735 51.6917 27.7134 52.0316C28.0534 52.3715 28.5144 52.5625 28.9951 52.5625C29.4758 52.5625 29.9368 52.3715 30.2767 52.0316C30.6166 51.6917 30.8076 51.2307 30.8076 50.75V38.6666H40.2326C40.8439 38.6673 41.443 38.496 41.9616 38.1724C42.4803 37.8488 42.8974 37.3859 43.1656 36.8365C43.4337 36.2871 43.542 35.6735 43.478 35.0655C43.4141 34.4576 43.1805 33.8799 42.8039 33.3983Z" fill="#54C055"/>
</svg>
