<svg width="822" height="1046" viewBox="0 0 822 1046" fill="none" xmlns="http://www.w3.org/2000/svg">
<g opacity="0.2">
<path d="M699.152 402.138L699.152 402.138C715.846 407.93 731.674 401.517 745.888 389.809C760.096 378.108 773.165 360.757 784.664 343.565C790.16 335.348 795.329 327.117 800.107 319.509L800.798 318.409C805.78 310.477 810.311 303.292 814.374 297.486C818.48 291.619 821.937 287.414 824.738 285.246C826.141 284.16 827.104 283.807 827.687 283.767C828.082 283.74 828.516 283.826 829.11 284.524C830.768 286.469 832.615 290.713 834.329 297.184C836.012 303.531 837.478 311.66 838.578 321.027C840.777 339.757 841.488 363.252 839.595 386.982C837.702 410.731 833.211 434.58 825.087 454.089C816.95 473.629 805.322 488.467 789.36 494.833C759.579 506.705 715.112 504.761 673.579 492.149C632.031 479.532 594.234 456.489 577.352 427.002C557.716 392.699 557.058 351.929 564.968 319.233C568.92 302.898 574.981 288.708 581.76 278.464C585.149 273.341 588.677 269.267 592.153 266.402C595.642 263.526 598.949 261.972 601.924 261.642L601.924 261.642C604.61 261.343 607.11 262.381 609.702 265.03C612.352 267.739 614.893 271.943 617.466 277.449C620.881 284.754 624.144 293.858 627.762 303.953C629.619 309.132 631.568 314.572 633.68 320.163C645.948 352.65 663.51 389.765 699.152 402.138Z" stroke="url(#paint0_linear_492_4286)" stroke-width="5"/>
<path d="M843.562 273.556L843.563 273.558C846.459 279.99 850.496 296.182 853.685 317.657C856.86 339.033 859.153 365.37 858.672 391.945C858.191 418.545 854.931 445.247 847.082 467.426C839.231 489.613 826.903 506.975 808.472 515.455C775.161 530.77 722.667 531.004 674.546 518.415C626.346 505.806 583.646 480.635 569.002 446.23C551.516 405.049 548.833 361.601 553.044 327.37C555.148 310.256 558.967 295.525 563.464 284.596C565.714 279.128 568.109 274.671 570.502 271.358C572.926 268.002 575.2 266.024 577.132 265.195C577.772 264.922 578.322 264.905 578.909 265.085C579.562 265.285 580.383 265.771 581.382 266.725C583.414 268.666 585.645 272.012 588.22 276.653C590.489 280.743 592.918 285.636 595.641 291.12C595.977 291.798 596.318 292.484 596.664 293.179C599.794 299.476 603.288 306.429 607.279 313.609C623.205 342.262 647.318 375.049 689.089 385.148C708.759 389.908 727.949 383.46 745.581 371.96C763.21 360.461 779.587 343.718 793.812 327.299C800.935 319.078 807.547 310.904 813.522 303.475C814.053 302.815 814.578 302.162 815.098 301.515C820.45 294.857 825.243 288.894 829.434 284.082C834.092 278.734 837.779 275.085 840.489 273.437C841.864 272.601 842.559 272.55 842.788 272.586C842.797 272.588 843.12 272.573 843.562 273.556Z" stroke="url(#paint1_linear_492_4286)" stroke-width="5"/>
<path d="M560.623 465.421L560.623 465.421C545.401 417.237 540.378 370.48 540.744 334.376C540.927 316.321 542.457 300.981 544.712 289.495C545.839 283.747 547.139 279.017 548.517 275.414C549.926 271.731 551.31 269.518 552.448 268.496L552.826 268.157L552.983 267.821C552.984 267.821 552.984 267.822 552.984 267.822C554.248 268.805 556.067 271.119 558.646 274.866C559.896 276.682 561.284 278.771 562.817 281.079C567.387 287.96 573.25 296.788 580.605 306.109C600.304 331.077 631.143 360.207 678.935 368.144L678.935 368.144C701.677 371.918 724.231 365.38 745.185 354.148C766.143 342.914 785.711 326.874 802.584 311.315C811.028 303.528 818.82 295.84 825.785 288.914C826.672 288.032 827.545 287.163 828.403 286.308C834.305 280.433 839.537 275.224 844.035 271.066C849.268 266.229 853.22 263.096 855.902 261.895C857.255 261.289 857.726 261.433 857.743 261.439C857.743 261.439 857.743 261.439 857.743 261.439C857.744 261.44 857.746 261.441 857.748 261.443C857.757 261.45 857.791 261.481 857.841 261.557C857.95 261.72 858.112 262.058 858.246 262.681C858.598 264.344 859.032 266.336 859.531 268.626C864.508 291.473 875.961 344.047 877.687 397.397C878.637 426.751 876.633 456.169 869.074 480.912C861.521 505.64 848.507 525.444 827.596 536.068L827.595 536.068C790.757 554.807 730.218 557.198 675.498 544.625C648.195 538.352 622.523 528.391 602.139 515.034C581.745 501.67 566.812 485.024 560.623 465.421ZM553.273 267.302C553.273 267.302 553.267 267.309 553.256 267.319C553.267 267.306 553.272 267.301 553.273 267.302Z" stroke="url(#paint2_linear_492_4286)" stroke-width="5"/>
<path d="M552.137 484.575C539.328 429.436 532.087 379.75 528.631 341.921C526.902 323.005 526.122 307.075 526.062 294.924C526.005 283.343 526.609 275.469 527.554 271.677C528.087 272.232 528.684 272.872 529.35 273.598C530.07 274.383 530.86 275.254 531.72 276.203C536.763 281.768 544.216 289.991 554.191 298.957C577.568 319.968 614.939 345.204 668.761 351.068L668.761 351.068C720.343 356.684 770.033 325.08 807.677 296.132C816.587 289.281 824.865 282.542 832.358 276.443C832.811 276.074 833.261 275.708 833.708 275.344C841.573 268.943 848.509 263.327 854.422 259.039C860.409 254.699 865.06 251.941 868.394 250.994C870.035 250.528 871.039 250.596 871.632 250.824C872.128 251.014 872.684 251.445 873.155 252.645C881.511 273.96 898.68 337.239 901.72 401.728C903.239 433.963 901.219 466.337 892.904 493.858C884.594 521.361 870.068 543.811 846.701 556.62L846.7 556.621C806.316 578.789 737.769 583.341 676.465 570.793C645.87 564.53 617.288 554.046 595.092 539.54C572.892 525.032 557.27 506.638 552.137 484.575ZM552.137 484.575L549.702 485.14M552.137 484.575L549.702 485.14M549.702 485.14C524.03 374.632 520.667 285.943 525.333 270.321L847.903 558.812C765.693 603.941 571.01 576.72 549.702 485.14Z" stroke="url(#paint3_linear_492_4286)" stroke-width="5"/>
<path d="M543.741 503.695L543.742 503.695C547.839 528.232 564.167 548.377 588.175 564.028C612.188 579.682 643.68 590.691 677.562 596.95C711.427 603.205 747.544 604.689 780.721 601.39C813.929 598.088 844.017 590.01 865.933 577.28L867.189 579.441L865.933 577.28C891.742 562.29 906.991 537.529 915.073 507.649C923.165 477.734 924.021 442.857 921.134 408.016C916.317 349.881 901.145 292.377 892.321 258.938C890.565 252.283 889.061 246.582 887.94 242.018C887.578 240.548 887.01 239.914 886.489 239.602C885.914 239.257 884.938 239.029 883.272 239.263C879.85 239.744 874.865 241.967 868.282 245.764C860.684 250.147 851.526 256.272 840.975 263.328C833.315 268.452 824.92 274.065 815.858 279.859C773.157 307.157 716.538 337.808 658.633 334.078C658.632 334.078 658.632 334.078 658.631 334.078L658.792 331.583C580.709 326.613 532.19 290.584 511.045 274.883C500.044 266.714 496.452 264.047 499.963 274.119L543.741 503.695ZM543.741 503.695C541.205 488.518 538.77 473.894 536.435 459.88C529.227 416.601 522.988 379.147 517.762 349.205C514.303 329.386 511.284 312.839 508.718 300.06C506.162 287.336 504.028 278.198 502.324 273.298L502.323 273.296C502.047 272.503 501.826 271.818 501.654 271.231L543.741 503.695Z" stroke="url(#paint4_linear_492_4286)" stroke-width="5"/>
<path d="M885.1 597.875L885.1 597.875C913.293 580.719 928.007 553.682 934.307 521.418C940.621 489.089 938.443 451.682 932.935 414.183C928.582 384.546 922.178 355.015 916.322 328.01C914.769 320.85 913.255 313.867 911.828 307.108C908.429 291.011 905.522 276.165 903.79 263.258C902.063 250.392 901.474 239.253 902.82 230.642M885.1 597.875L905.29 231.028M885.1 597.875C861.414 612.294 828.45 621.753 791.982 626.019C755.546 630.281 715.795 629.336 678.652 623.09C641.487 616.839 607.083 605.306 581.245 588.501C555.422 571.705 538.364 549.801 535.278 522.769M885.1 597.875L532.794 523.052M902.82 230.642L905.29 231.028M902.82 230.642C902.82 230.643 902.82 230.643 902.82 230.644L905.29 231.028M902.82 230.642C903.116 228.736 902.799 228.038 902.664 227.855C902.612 227.784 902.342 227.438 901.025 227.453C899.702 227.468 897.805 227.86 895.264 228.722C892.758 229.572 889.782 230.824 886.351 232.431C878.302 236.203 868.134 241.746 856.184 248.26C847.583 252.948 838.059 258.14 827.738 263.536C778.765 289.142 712.744 318.855 648.482 317.022L648.481 317.022C582.494 315.12 533.091 296.813 503.033 283.537C497.016 280.879 491.766 278.419 487.337 276.344C486.244 275.832 485.201 275.343 484.209 274.881C479.142 272.519 475.559 270.92 473.277 270.253M905.29 231.028C907.391 217.503 887.525 228.331 854.87 246.128C805.017 273.299 725.358 316.714 648.553 314.523C569.869 312.255 514.927 286.511 488.408 274.085C470.742 265.807 465.689 263.439 474.631 277.857C488.459 300.298 517.096 385.305 532.794 523.052M473.277 270.253C472.922 269.418 472.813 268.955 472.8 268.761C472.8 268.756 472.8 268.752 472.8 268.75M473.277 270.253C473.264 270.25 473.252 270.246 473.24 270.243C472.166 269.932 471.778 269.957 471.777 269.946C471.777 269.944 471.786 269.942 471.804 269.937C471.994 269.885 472.365 269.706 472.618 269.287C472.785 269.01 472.799 268.792 472.8 268.75M473.277 270.253C473.392 270.525 473.533 270.835 473.705 271.189C474.37 272.552 475.375 274.313 476.756 276.539L476.759 276.545C483.879 288.101 494.57 315.268 505.429 356.579C516.312 397.979 527.417 453.786 535.278 522.769M472.8 268.75C472.8 268.745 472.8 268.742 472.8 268.742C472.8 268.742 472.8 268.745 472.8 268.75ZM535.278 522.769C535.278 522.769 535.278 522.769 535.278 522.769L532.794 523.052M535.278 522.769L532.794 523.052" stroke="url(#paint5_linear_492_4286)" stroke-width="5"/>
<path d="M526.826 541.841L526.826 541.841C516.166 390.107 472.963 306.957 451.069 280.037C446.752 274.726 444.558 271.364 443.908 269.421C443.836 269.204 443.794 269.039 443.77 268.916C443.891 268.888 444.057 268.859 444.281 268.838C446.24 268.648 449.86 269.231 455.459 270.596C459.842 271.665 465.171 273.139 471.449 274.876C473.013 275.309 474.637 275.758 476.32 276.221C509.983 285.489 566.062 300.058 638.185 300.001C708.851 299.944 781.858 271.296 835.865 247.484C844.617 243.626 852.851 239.903 860.494 236.447C876.551 229.187 889.995 223.109 900.139 219.434C903.858 218.086 907.065 217.088 909.742 216.479C912.456 215.862 914.451 215.687 915.816 215.851C917.135 216.008 917.49 216.418 917.632 216.671C917.852 217.064 918.084 218.037 917.607 220.116L917.607 220.117C915.352 229.967 915.503 242.387 917.123 256.561C918.747 270.772 921.873 286.948 925.697 304.387C928.158 315.609 930.906 327.35 933.738 339.451C939.732 365.063 946.104 392.289 950.931 419.627C958.034 459.855 961.712 499.954 955.903 534.845C950.106 569.657 934.898 599.129 904.295 618.487C878.809 634.586 842.954 645.423 803.221 650.649C763.522 655.87 720.139 655.466 679.724 649.229C639.283 642.989 601.977 630.935 574.319 612.98C546.687 595.042 528.898 571.379 526.826 541.841ZM443.741 268.619C443.742 268.619 443.741 268.623 443.74 268.631C443.74 268.623 443.741 268.619 443.741 268.619ZM443.494 269.005C443.491 269.007 443.49 269.008 443.49 269.008C443.489 269.008 443.491 269.007 443.494 269.005Z" stroke="url(#paint6_linear_492_4286)" stroke-width="5"/>
<path d="M425.529 283.632L425.529 283.631L934.891 210.308L932.491 209.611C932.491 209.611 932.49 209.611 932.49 209.611C929.283 220.659 928.956 234.333 930.438 249.802C931.924 265.301 935.249 282.798 939.484 301.576C942.927 316.837 946.955 332.891 951.11 349.449C957.232 373.842 963.628 399.332 968.831 424.998C977.542 467.971 982.747 510.782 977.461 548.248C972.189 585.624 956.506 617.535 923.494 639.081C896.238 656.854 857.509 669.064 814.518 675.251C771.563 681.433 724.549 681.573 680.854 675.352C637.131 669.126 596.908 656.557 567.415 637.456C537.959 618.38 519.418 592.956 518.348 560.903C512.831 395.301 455.12 314.602 425.529 283.632Z" stroke="url(#paint7_linear_492_4286)" stroke-width="5"/>
<path d="M400.026 287.275L400.025 287.274C392.885 280.576 388.566 275.488 386.572 271.696C385.583 269.815 385.277 268.459 385.317 267.511C385.352 266.664 385.665 265.975 386.387 265.313C387.179 264.586 388.504 263.866 390.559 263.249C392.592 262.638 395.18 262.174 398.344 261.852C404.675 261.208 413.012 261.162 423.226 261.48C433.788 261.809 446.282 262.526 460.465 263.341C500.977 265.666 555.275 268.783 617.726 265.904C701.225 262.052 788.208 235.396 852.258 215.155C854.885 214.325 857.472 213.506 860.018 212.7C888.615 203.648 912.001 196.245 927.87 193.203C932.171 192.378 935.846 191.89 938.876 191.766C941.941 191.642 944.163 191.901 945.656 192.434C947.07 192.939 947.646 193.608 947.897 194.338C948.197 195.206 948.224 196.694 947.392 199.127L949.758 199.935L947.392 199.127C943.22 211.341 942.4 226.245 943.736 242.993C945.073 259.764 948.588 278.571 953.232 298.681C957.569 317.465 962.909 337.461 968.411 358.063C968.8 359.52 969.19 360.981 969.58 362.444C975.496 384.609 981.533 407.437 986.691 430.279C997.017 476.002 1003.76 521.541 999.007 561.599C994.267 601.556 978.118 635.923 942.699 659.668C913.657 679.138 872.047 692.735 825.798 699.888C779.586 707.035 728.944 707.717 681.974 701.505C634.974 695.289 591.839 682.196 560.512 661.941C529.234 641.717 509.936 614.523 509.868 579.945C509.697 490.276 491.602 425.863 468.821 379.45C446.038 333.035 418.628 304.746 400.026 287.275Z" stroke="url(#paint8_linear_492_4286)" stroke-width="5"/>
<path d="M961.888 680.255L961.889 680.255C999.709 654.319 1016.31 617.493 1020.5 574.942C1024.7 532.281 1016.4 483.998 1004.45 435.512C998.69 412.145 992.097 388.793 985.674 366.042L984.969 363.545C978.331 340.027 971.912 317.17 966.862 295.727C961.814 274.289 958.114 254.179 956.935 236.148C955.758 218.134 957.085 202.02 962.236 188.666C963.245 186.048 963.33 184.314 963.023 183.201C962.751 182.213 962.075 181.361 960.582 180.667C959.009 179.935 956.661 179.456 953.419 179.333C950.209 179.212 946.296 179.446 941.704 180.008C923.26 182.266 895.06 189.661 860.428 198.925C858.401 199.467 856.352 200.016 854.282 200.57C785.855 218.89 694.753 243.28 607.457 248.863C562.181 251.758 520.572 252.377 484.73 252.612C477.982 252.657 471.441 252.687 465.122 252.717C437.837 252.845 414.672 252.954 396.637 254.051C385.53 254.727 376.501 255.771 369.722 257.387C362.806 259.036 358.812 261.154 357.065 263.515C355.586 265.514 355.316 268.325 357.952 272.952C360.618 277.632 365.964 283.551 374.508 290.968C374.508 290.969 374.509 290.969 374.509 290.969L961.888 680.255ZM961.888 680.255C931.062 701.409 886.577 716.393 837.08 724.516M961.888 680.255L837.08 724.516M837.08 724.516C787.62 732.634 733.361 733.867 683.127 727.675M837.08 724.516L683.127 727.675M683.127 727.675C632.858 721.478 586.817 707.87 553.655 686.459M683.127 727.675L553.655 686.459M553.655 686.459C520.554 665.087 500.488 636.112 501.405 598.978L553.655 686.459Z" stroke="url(#paint9_linear_492_4286)" stroke-width="5"/>
<path d="M981.099 700.84L981.098 700.841C948.482 723.689 901.111 740.054 848.353 749.138C795.633 758.216 737.742 759.987 684.231 753.803C630.683 747.614 581.729 733.482 546.733 710.919C511.81 688.402 490.988 657.658 492.92 618.004C497.967 514.619 475.317 444.574 444.623 394.905C416.441 349.301 381.548 321.021 355.653 300.033C353.377 298.189 351.171 296.401 349.045 294.662L349.044 294.662C339.099 286.531 332.732 279.796 329.394 274.239C326.084 268.731 325.984 264.829 327.655 261.819C329.465 258.556 333.751 255.544 341.086 252.922C348.325 250.334 358.053 248.292 370.052 246.622C394.041 243.284 426.586 241.499 465.332 239.587C469.076 239.403 472.877 239.217 476.733 239.028C512.736 237.268 553.517 235.274 597.2 231.802C683.206 224.968 772.873 204.492 843.811 188.293C852.37 186.339 860.655 184.447 868.629 182.649C905.762 174.274 935.965 167.971 955.58 166.771C960.464 166.472 964.616 166.495 968.01 166.862C971.433 167.233 973.913 167.937 975.574 168.877C977.158 169.774 977.923 170.833 978.198 172.08C978.498 173.44 978.301 175.414 977.113 178.22C970.981 192.686 969.141 209.986 970.155 229.248C971.17 248.521 975.052 269.92 980.502 292.676C985.955 315.438 992.998 339.645 1000.36 364.529C1001.22 367.438 1002.09 370.356 1002.96 373.282C1009.52 395.411 1016.22 418.01 1022.22 440.626C1035.8 491.877 1045.66 542.92 1042.01 588.205C1038.37 633.372 1021.32 672.685 981.099 700.84Z" stroke="url(#paint10_linear_492_4286)" stroke-width="5"/>
<path d="M991.933 167.785L991.932 167.786C977.759 198.847 982.421 241.67 994.092 289.662C1001.01 318.122 1010.52 348.8 1020.27 380.27C1026.96 401.886 1033.77 423.877 1039.94 445.779C1055.16 499.793 1066.59 553.588 1063.5 601.49C1060.42 649.267 1042.93 691.058 1000.31 721.424C965.905 745.939 915.652 763.677 859.639 773.723C803.664 783.762 742.149 786.082 685.366 779.917C628.544 773.748 576.677 759.106 539.844 735.395C503.094 711.737 481.502 679.22 484.435 637.022C492.101 526.794 467.187 453.939 432.539 402.653C402.734 358.535 365.775 330.498 336.788 308.509C332.145 304.987 327.707 301.62 323.536 298.367C312.19 289.515 304.807 281.963 300.799 275.532C296.82 269.147 296.354 264.209 298.132 260.177C299.989 255.963 304.585 252.026 312.361 248.434C320.071 244.872 330.506 241.834 343.4 239.174C369.178 233.854 404.267 230.142 445.875 226.562C461.599 225.21 478.256 223.875 495.676 222.48C524.273 220.189 554.926 217.734 586.881 214.761C669.63 207.068 755.703 190.11 827.363 175.991C844.788 172.558 861.361 169.293 876.826 166.369C916.461 158.878 948.66 153.665 969.441 153.52C974.617 153.483 979.008 153.763 982.586 154.378C986.19 154.997 988.805 155.928 990.553 157.084C992.232 158.194 993.07 159.472 993.334 160.976C993.615 162.58 993.302 164.789 991.933 167.785Z" stroke="url(#paint11_linear_492_4286)" stroke-width="5"/>
<path d="M1019.51 742.004L1019.51 742.005C983.335 768.201 930.215 787.32 870.954 798.332C811.733 809.337 746.595 812.205 686.539 806.057C626.441 799.905 571.657 784.749 532.981 759.884C494.399 735.08 472.034 700.782 475.969 656.031C486.264 538.966 459.087 463.311 420.488 410.416C389.003 367.271 349.938 339.36 318.093 316.608C311.008 311.546 304.281 306.74 298.074 302.078C285.335 292.503 276.94 284.135 272.261 276.83C267.611 269.571 266.783 263.63 268.612 258.58C270.49 253.394 275.389 248.508 283.613 243.944C291.794 239.404 302.934 235.368 316.719 231.716C362.773 219.515 436.675 211.997 523.35 203.18C540.649 201.42 558.457 199.609 576.654 197.698C653.42 189.637 733.044 175.889 802.771 163.849C832.297 158.751 860.049 153.959 885.057 150.036C927.201 143.423 961.41 139.3 983.375 140.214C988.846 140.441 993.482 140.979 997.249 141.843C1001.04 142.713 1003.8 143.877 1005.64 145.257C1007.42 146.59 1008.32 148.1 1008.56 149.86C1008.82 151.708 1008.39 154.15 1006.84 157.34C990.687 190.614 995.248 235.936 1007.71 286.572C1015.46 318.045 1026.38 351.972 1037.57 386.722C1044.39 407.921 1051.31 429.425 1057.68 450.865C1074.52 507.652 1087.51 564.215 1084.99 614.747C1082.47 665.147 1064.52 709.426 1019.51 742.004Z" stroke="url(#paint12_linear_492_4286)" stroke-width="5"/>
<path d="M1021.71 146.942L1021.71 146.943C1003.6 182.397 1008.08 230.2 1021.35 283.468C1029.92 317.826 1042.26 354.869 1054.89 392.758C1061.85 413.66 1068.9 434.82 1075.45 455.929C1093.93 515.491 1108.49 574.83 1106.52 628.001C1104.55 681.032 1086.15 727.808 1038.73 762.604L1040.2 764.619L1038.73 762.604C1000.74 790.477 944.725 810.975 882.206 822.95C819.728 834.918 750.97 838.333 687.649 832.202C624.284 826.067 566.595 810.394 526.087 784.376C485.682 758.424 462.548 722.343 467.483 675.037C480.407 551.138 450.977 472.689 408.443 418.193C375.253 375.668 334.068 347.793 299.522 324.411C289.961 317.939 280.908 311.812 272.674 305.814C258.534 295.51 249.128 286.324 243.783 278.143C238.468 270.009 237.294 263.084 239.155 257.021C241.05 250.851 246.26 244.997 254.961 239.454C263.634 233.929 275.498 228.892 290.187 224.249C348.222 205.904 448.11 194.344 561.548 181.216L566.385 180.656C624.286 173.958 683.729 165.083 739.829 156.454C748.948 155.051 757.979 153.655 766.9 152.276C812.877 145.168 855.942 138.51 893.285 133.714C937.937 127.981 974.153 124.948 997.298 126.924C1008.99 127.921 1016.75 130.161 1020.71 133.464C1022.59 135.028 1023.55 136.776 1023.76 138.789C1023.99 140.882 1023.45 143.555 1021.71 146.942Z" stroke="url(#paint13_linear_492_4286)" stroke-width="5"/>
<path d="M247.225 309.484L247.224 309.483C231.685 298.451 221.268 288.45 215.254 279.395C209.271 270.386 207.751 262.491 209.621 255.426C211.515 248.27 217.02 241.439 226.198 234.913C235.359 228.4 247.943 222.362 263.533 216.728C325.993 194.154 434.49 178.799 556.114 163.561C608.757 156.966 662.566 149.287 714.304 141.904C782.86 132.12 847.777 122.856 901.519 117.321C948.679 112.464 986.9 110.52 1011.23 113.559C1023.5 115.091 1031.66 117.833 1035.79 121.605C1037.76 123.405 1038.77 125.393 1038.95 127.657C1039.14 129.991 1038.48 132.893 1036.56 136.478C1016.46 174.1 1020.8 224.353 1034.85 280.224C1044.2 317.444 1057.99 357.577 1072.07 398.579C1079.14 419.176 1086.29 439.992 1092.99 460.769C1113.1 523.085 1129.22 585.194 1127.84 641.024C1126.46 696.708 1107.68 746.027 1057.95 783.128C1018.11 812.625 959.189 834.477 893.406 847.412C827.663 860.34 755.289 864.319 688.711 858.228C622.087 852.132 561.506 835.976 519.175 808.827C476.957 781.752 453.061 743.905 458.999 694.042C474.569 563.332 442.887 482.092 396.411 425.986C361.5 383.843 318.188 355.916 281.031 331.958C268.944 324.164 257.508 316.79 247.225 309.484Z" stroke="url(#paint14_linear_492_4286)" stroke-width="5"/>
<path d="M450.53 713.038L448.052 712.71L450.53 713.038C468.728 575.509 434.791 491.483 384.364 433.787C359.207 405.004 330.026 382.865 301.412 363.931C288.261 355.229 275.207 347.189 262.721 339.499C261.627 338.825 260.536 338.153 259.45 337.484C245.965 329.173 233.212 321.251 221.699 313.262C204.765 301.502 193.34 290.685 186.66 280.756C180.01 270.872 178.148 262.016 180.014 253.953C181.898 245.813 187.691 237.996 197.351 230.482C207 222.976 220.304 215.934 236.795 209.308C302.858 182.762 417.932 163.679 545.763 146.573C574.669 142.703 603.931 138.677 633.056 134.669C733.718 120.818 832.738 107.193 909.717 101.019C959.388 97.0358 999.619 96.1808 1025.13 100.283C1037.99 102.351 1046.55 105.6 1050.85 109.849C1052.92 111.89 1053.97 114.123 1054.12 116.635C1054.27 119.212 1053.49 122.342 1051.39 126.127C1029.29 165.915 1033.52 218.643 1048.37 277.147C1058.52 317.17 1073.77 360.326 1089.33 404.368C1096.54 424.753 1103.81 445.328 1110.67 465.87C1132.42 530.967 1150.13 595.858 1149.32 654.326C1148.51 712.646 1129.28 764.46 1077.12 803.766C1035.51 834.934 973.714 858.158 904.687 872.052C835.698 885.939 759.708 890.461 689.863 884.383C619.971 878.301 556.478 861.626 512.308 833.32C468.261 805.094 443.59 765.46 450.53 713.038Z" stroke="url(#paint15_linear_492_4286)" stroke-width="5"/>
<path d="M1066.28 115.725C1042.22 157.668 1046.36 212.865 1061.99 273.998C1072.93 316.762 1089.62 362.868 1106.64 409.875C1113.97 430.115 1121.36 450.522 1128.38 470.9C1151.75 538.78 1171.03 606.456 1170.78 667.567C1170.54 728.524 1150.88 782.832 1096.37 824.342C1052.96 857.203 988.285 881.822 916.001 896.692C843.76 911.553 764.146 916.632 691.029 910.576C617.863 904.515 551.454 887.325 505.439 857.858C482.455 843.139 464.641 825.41 453.558 804.554C442.49 783.725 438.06 759.639 442.045 732.033C462.889 587.699 426.705 500.888 372.356 441.597C345.248 412.024 313.707 389.39 282.738 369.897C269.783 361.742 256.902 354.121 244.489 346.778C242.071 345.347 239.67 343.927 237.29 342.515C222.676 333.847 208.843 325.504 196.35 316.991L194.942 319.057L196.35 316.991C178.016 304.501 165.577 292.862 158.225 282.048C150.903 271.279 148.696 261.451 150.547 252.377C152.411 243.235 158.483 234.409 168.624 225.886C178.758 217.368 192.781 209.305 210.171 201.672C279.831 171.098 401.482 148.288 535.54 129.532L535.548 129.531C670.775 110.138 813.726 90.6311 917.986 84.4636C970.17 81.3767 1012.41 81.6503 1039.11 86.856C1052.56 89.4771 1061.52 93.255 1065.99 98.0022C1068.15 100.294 1069.24 102.781 1069.35 105.548C1069.46 108.373 1068.56 111.736 1066.28 115.725ZM1066.28 115.725L1068.45 116.969M1066.28 115.725C1066.28 115.726 1066.28 115.726 1066.28 115.726L1068.45 116.969M1068.45 116.969C1107.42 48.9644 805.607 88.275 535.193 127.057L1097.88 826.335C1225.04 729.503 1164.97 563.59 1108.95 408.888C1067.61 294.72 1028.48 186.657 1068.45 116.969Z" stroke="url(#paint16_linear_492_4286)" stroke-width="5"/>
<path d="M525.264 112.471L525.27 112.47C666.969 91.211 816.959 72.5839 926.238 68.1552C980.934 65.9385 1025.19 67.2925 1053.08 73.5517C1067.11 76.7011 1076.47 80.9853 1081.12 86.2114C1083.37 88.7451 1084.49 91.4736 1084.56 94.4794C1084.63 97.5378 1083.61 101.122 1081.14 105.307C1055.11 149.399 1059.15 207.061 1075.59 270.825C1087.32 316.287 1105.48 365.297 1123.98 415.221C1131.44 435.36 1138.96 455.648 1146.13 475.911C1171.15 546.576 1192.01 617.041 1192.32 680.798C1192.64 744.397 1172.53 801.204 1115.59 844.919C1070.4 879.473 1002.87 905.478 927.368 921.316C851.909 937.146 768.712 942.773 692.35 936.732C615.938 930.687 546.625 912.979 498.745 882.353C474.829 867.055 456.345 848.589 444.935 826.823C433.541 805.085 429.125 779.91 433.561 751.022C457.315 599.922 418.884 510.331 360.536 449.439C331.439 419.074 297.48 395.94 264.103 375.884C251.242 368.157 238.519 360.912 226.19 353.893C206.386 342.618 187.601 331.923 170.909 320.738C131.241 294.154 117.362 270.965 121.019 250.894C122.863 240.772 129.212 230.956 139.84 221.44C150.465 211.928 165.21 202.86 183.504 194.235C256.777 159.692 385.002 133.15 525.264 112.471Z" stroke="url(#paint17_linear_492_4286)" stroke-width="5"/>
<path d="M514.984 95.4324L514.989 95.4316C663.146 72.2888 820.176 54.5173 934.485 51.8198C991.697 50.4697 1037.97 52.9047 1067.05 60.2254C1081.67 63.9066 1091.44 68.7046 1096.25 74.4192C1098.59 77.1995 1099.75 80.1741 1099.77 83.4224C1099.8 86.7193 1098.66 90.5281 1096 94.9154C1068 141.146 1071.93 201.267 1089.17 267.657C1101.67 315.8 1121.3 367.691 1141.29 420.508C1148.88 440.565 1156.52 460.757 1163.84 480.927C1190.49 554.378 1212.93 627.635 1213.82 694.038C1214.7 760.281 1194.15 819.586 1134.81 865.503C1087.83 901.739 1017.41 929.125 938.654 945.929C859.937 962.725 773.111 968.901 693.474 962.878C613.785 956.852 541.556 938.63 491.84 906.848C467.007 890.973 447.876 871.771 436.176 849.097C424.492 826.451 420.14 800.188 425.093 770.014C451.426 612.104 410.769 519.749 348.518 457.275C317.479 426.126 281.167 402.5 245.429 381.883C232.772 374.582 220.223 367.675 208.003 360.95C185.596 348.618 164.299 336.898 145.487 324.472C103.038 296.439 87.8777 271.434 91.4874 249.408C93.3062 238.309 99.9262 227.501 111.042 216.993C122.156 206.485 137.624 196.413 156.822 186.798C233.711 148.29 368.515 118.027 514.984 95.4324Z" stroke="url(#paint18_linear_492_4286)" stroke-width="5"/>
<path d="M504.762 78.3903L504.765 78.3898C659.404 53.3153 823.457 36.3945 942.778 35.4372C1002.5 34.9581 1050.77 38.4827 1081.03 46.8736C1096.25 51.0906 1106.41 56.4085 1111.38 62.6171C1113.81 65.6467 1114.99 68.8692 1114.97 72.3606C1114.95 75.8967 1113.69 79.9314 1110.85 84.5222L1112.97 85.8394L1110.85 84.5224C1080.87 132.881 1084.7 195.455 1102.73 264.468C1116.01 315.255 1137.11 369.986 1158.58 425.656C1166.3 445.668 1174.06 465.801 1181.52 485.916C1209.81 562.155 1233.82 638.206 1235.28 707.26C1236.73 776.149 1215.74 837.957 1154.01 886.079C1105.25 924.013 1031.96 952.789 949.943 970.563C867.97 988.327 777.516 995.051 694.603 989.043C611.636 983.03 536.487 964.29 484.93 931.348C459.178 914.893 439.398 894.952 427.407 871.368C415.43 847.812 411.14 820.461 416.608 789.004C431.052 706.712 427.572 641.753 412.154 589.323C396.729 536.872 369.4 497.106 336.377 465.153C303.383 433.228 264.716 409.114 226.639 387.93C214.341 381.087 202.129 374.562 190.188 368.183C165.047 354.75 141.11 341.961 120.11 328.206L120.102 328.201C74.8251 298.794 58.3748 272.024 61.9244 248.072C63.712 236.011 70.5997 224.216 82.2062 212.712C93.8126 201.209 110.01 190.127 130.119 179.514C210.653 137.012 352.085 102.947 504.762 78.3903Z" stroke="url(#paint19_linear_492_4286)" stroke-width="5"/>
<path d="M1125.63 74.1295L1125.63 74.1303C1093.71 124.616 1097.45 189.643 1116.29 261.276C1130.34 314.669 1152.92 372.195 1175.88 430.673C1183.73 450.681 1191.63 470.8 1199.25 490.903C1229.18 569.928 1254.77 648.773 1256.8 720.478C1258.81 792.014 1237.38 856.325 1173.24 906.653C1122.69 946.294 1046.52 976.465 961.239 995.21C876.005 1013.95 781.914 1021.22 695.719 1015.22C609.469 1009.22 531.396 989.956 477.999 955.851C451.327 938.815 430.9 918.135 418.62 893.639C406.355 869.171 402.131 840.731 408.122 807.99C423.877 722.289 420.502 654.922 404.365 600.733C388.222 546.522 359.354 505.658 324.38 472.912C289.438 440.196 248.405 415.587 207.951 393.851C195.782 387.313 183.685 381.043 171.82 374.894C144.131 360.544 117.71 346.852 94.6128 331.936L94.6092 331.933C46.5836 301.034 28.8798 272.431 32.3774 246.515C34.1378 233.471 41.2913 220.677 53.3833 208.175C65.4764 195.671 82.3924 183.584 103.4 171.981C187.528 125.516 335.489 87.7619 494.348 61.3279L494.349 61.3277C655.501 34.4251 826.611 18.3546 950.971 19.1138C1013.21 19.4937 1063.5 24.0904 1094.95 33.5389C1110.76 38.2852 1121.32 44.1193 1126.46 50.8205C1128.97 54.0985 1130.18 57.5675 1130.11 61.3001C1130.04 65.0742 1128.66 69.3341 1125.63 74.1295Z" stroke="url(#paint20_linear_492_4286)" stroke-width="5"/>
<path d="M399.656 826.975L397.2 826.505L399.656 826.974C416.675 737.89 413.377 668.127 396.511 612.186C379.639 556.222 349.237 514.26 312.326 480.716C275.45 447.203 232.075 422.093 189.266 399.8C177.235 393.534 165.263 387.498 153.492 381.562C123.273 366.325 94.3778 351.756 69.1935 335.689L67.8489 337.796L69.1934 335.689C18.0025 303.033 -0.848062 272.378 2.98184 244.319C4.90979 230.194 12.6069 216.304 25.5339 202.713C38.4611 189.121 56.5058 175.951 78.8613 163.295C168.377 112.615 325.29 71.0975 492.018 42.9457C658.663 14.808 834.731 0.0839943 962.343 2.82447C1026.21 4.19594 1077.69 9.93922 1109.77 20.4431C1125.88 25.7175 1136.63 32.0459 1141.79 39.1948C1144.33 42.6992 1145.52 46.3911 1145.38 50.3402C1145.24 54.3279 1143.74 58.7816 1140.54 63.7426C1106.64 116.356 1110.26 183.833 1129.9 258.088C1144.72 314.092 1168.78 374.419 1193.23 435.709C1201.2 455.707 1209.22 475.807 1216.97 495.894C1248.54 577.707 1275.71 659.348 1278.3 733.706C1280.88 807.893 1259 874.711 1192.46 927.249C1140.12 968.565 1061.06 1000.11 972.527 1019.82C884.039 1039.52 786.324 1047.34 696.859 1041.37C607.338 1035.39 526.351 1015.61 471.116 980.35C443.525 962.737 422.45 941.319 409.876 915.912C397.316 890.534 393.153 861.003 399.656 826.975Z" stroke="url(#paint21_linear_492_4286)" stroke-width="5"/>
</g>
<defs>
<linearGradient id="paint0_linear_492_4286" x1="557.733" y1="382.173" x2="843.188" y2="382.173" gradientUnits="userSpaceOnUse">
<stop stop-color="#1BCA52"/>
<stop offset="0.5" stop-color="#0F72EC"/>
<stop offset="1" stop-color="#159F9D" stop-opacity="0"/>
</linearGradient>
<linearGradient id="paint1_linear_492_4286" x1="548.796" y1="396.2" x2="861.236" y2="396.2" gradientUnits="userSpaceOnUse">
<stop stop-color="#1BCA52"/>
<stop offset="0.5" stop-color="#0F72EC"/>
<stop offset="1" stop-color="#159F9D" stop-opacity="0"/>
</linearGradient>
<linearGradient id="paint2_linear_492_4286" x1="538.226" y1="406.933" x2="880.406" y2="406.933" gradientUnits="userSpaceOnUse">
<stop stop-color="#1BCA52"/>
<stop offset="0.5" stop-color="#0F72EC"/>
<stop offset="1" stop-color="#159F9D" stop-opacity="0"/>
</linearGradient>
<linearGradient id="paint3_linear_492_4286" x1="523.559" y1="414.16" x2="904.685" y2="414.16" gradientUnits="userSpaceOnUse">
<stop stop-color="#1BCA52"/>
<stop offset="0.5" stop-color="#0F72EC"/>
<stop offset="1" stop-color="#159F9D" stop-opacity="0"/>
</linearGradient>
<linearGradient id="paint4_linear_492_4286" x1="498.666" y1="421.133" x2="925.144" y2="421.133" gradientUnits="userSpaceOnUse">
<stop stop-color="#1BCA52"/>
<stop offset="0.5" stop-color="#0F72EC"/>
<stop offset="1" stop-color="#159F9D" stop-opacity="0"/>
</linearGradient>
<linearGradient id="paint5_linear_492_4286" x1="470.3" y1="428.041" x2="940.652" y2="428.041" gradientUnits="userSpaceOnUse">
<stop stop-color="#1BCA52"/>
<stop offset="0.5" stop-color="#0F72EC"/>
<stop offset="1" stop-color="#159F9D" stop-opacity="0"/>
</linearGradient>
<linearGradient id="paint6_linear_492_4286" x1="441.239" y1="435.028" x2="961.276" y2="435.028" gradientUnits="userSpaceOnUse">
<stop stop-color="#1BCA52"/>
<stop offset="0.5" stop-color="#0F72EC"/>
<stop offset="1" stop-color="#159F9D" stop-opacity="0"/>
</linearGradient>
<linearGradient id="paint7_linear_492_4286" x1="412.071" y1="441.924" x2="982.087" y2="441.924" gradientUnits="userSpaceOnUse">
<stop stop-color="#1BCA52"/>
<stop offset="0.5" stop-color="#0F72EC"/>
<stop offset="1" stop-color="#159F9D" stop-opacity="0"/>
</linearGradient>
<linearGradient id="paint8_linear_492_4286" x1="382.813" y1="448.739" x2="1003.06" y2="448.739" gradientUnits="userSpaceOnUse">
<stop stop-color="#1BCA52"/>
<stop offset="0.5" stop-color="#0F72EC"/>
<stop offset="1" stop-color="#159F9D" stop-opacity="0"/>
</linearGradient>
<linearGradient id="paint9_linear_492_4286" x1="353.455" y1="455.445" x2="1024.11" y2="455.445" gradientUnits="userSpaceOnUse">
<stop stop-color="#1BCA52"/>
<stop offset="0.5" stop-color="#0F72EC"/>
<stop offset="1" stop-color="#159F9D" stop-opacity="0"/>
</linearGradient>
<linearGradient id="paint10_linear_492_4286" x1="324.09" y1="462.006" x2="1045.27" y2="462.006" gradientUnits="userSpaceOnUse">
<stop stop-color="#1BCA52"/>
<stop offset="0.5" stop-color="#0F72EC"/>
<stop offset="1" stop-color="#159F9D" stop-opacity="0"/>
</linearGradient>
<linearGradient id="paint11_linear_492_4286" x1="294.642" y1="468.415" x2="1066.51" y2="468.415" gradientUnits="userSpaceOnUse">
<stop stop-color="#1BCA52"/>
<stop offset="0.5" stop-color="#0F72EC"/>
<stop offset="1" stop-color="#159F9D" stop-opacity="0"/>
</linearGradient>
<linearGradient id="paint12_linear_492_4286" x1="265.209" y1="474.662" x2="1087.8" y2="474.662" gradientUnits="userSpaceOnUse">
<stop stop-color="#1BCA52"/>
<stop offset="0.5" stop-color="#0F72EC"/>
<stop offset="1" stop-color="#159F9D" stop-opacity="0"/>
</linearGradient>
<linearGradient id="paint13_linear_492_4286" x1="235.827" y1="480.755" x2="1109.2" y2="480.755" gradientUnits="userSpaceOnUse">
<stop stop-color="#1BCA52"/>
<stop offset="0.5" stop-color="#0F72EC"/>
<stop offset="1" stop-color="#159F9D" stop-opacity="0"/>
</linearGradient>
<linearGradient id="paint14_linear_492_4286" x1="206.367" y1="486.564" x2="1130.43" y2="486.564" gradientUnits="userSpaceOnUse">
<stop stop-color="#1BCA52"/>
<stop offset="0.5" stop-color="#0F72EC"/>
<stop offset="1" stop-color="#159F9D" stop-opacity="0"/>
</linearGradient>
<linearGradient id="paint15_linear_492_4286" x1="176.828" y1="492.308" x2="1151.85" y2="492.308" gradientUnits="userSpaceOnUse">
<stop stop-color="#1BCA52"/>
<stop offset="0.5" stop-color="#0F72EC"/>
<stop offset="1" stop-color="#159F9D" stop-opacity="0"/>
</linearGradient>
<linearGradient id="paint16_linear_492_4286" x1="147.425" y1="497.771" x2="1173.28" y2="497.771" gradientUnits="userSpaceOnUse">
<stop stop-color="#1BCA52"/>
<stop offset="0.5" stop-color="#0F72EC"/>
<stop offset="1" stop-color="#159F9D" stop-opacity="0"/>
</linearGradient>
<linearGradient id="paint17_linear_492_4286" x1="117.952" y1="503.132" x2="1194.83" y2="503.132" gradientUnits="userSpaceOnUse">
<stop stop-color="#1BCA52"/>
<stop offset="0.5" stop-color="#0F72EC"/>
<stop offset="1" stop-color="#159F9D" stop-opacity="0"/>
</linearGradient>
<linearGradient id="paint18_linear_492_4286" x1="88.4707" y1="508.299" x2="1216.34" y2="508.299" gradientUnits="userSpaceOnUse">
<stop stop-color="#1BCA52"/>
<stop offset="0.5" stop-color="#0F72EC"/>
<stop offset="1" stop-color="#159F9D" stop-opacity="0"/>
</linearGradient>
<linearGradient id="paint19_linear_492_4286" x1="58.9551" y1="513.293" x2="1237.85" y2="513.293" gradientUnits="userSpaceOnUse">
<stop stop-color="#1BCA52"/>
<stop offset="0.5" stop-color="#0F72EC"/>
<stop offset="1" stop-color="#159F9D" stop-opacity="0"/>
</linearGradient>
<linearGradient id="paint20_linear_492_4286" x1="29.4473" y1="518.181" x2="1259.42" y2="518.181" gradientUnits="userSpaceOnUse">
<stop stop-color="#1BCA52"/>
<stop offset="0.5" stop-color="#0F72EC"/>
<stop offset="1" stop-color="#159F9D" stop-opacity="0"/>
</linearGradient>
<linearGradient id="paint21_linear_492_4286" x1="6.23569e-06" y1="522.914" x2="1281" y2="522.914" gradientUnits="userSpaceOnUse">
<stop stop-color="#1BCA52"/>
<stop offset="0.5" stop-color="#0F72EC"/>
<stop offset="1" stop-color="#159F9D" stop-opacity="0"/>
</linearGradient>
</defs>
</svg>
