<svg width="1095" height="1041" viewBox="0 0 1095 1041" fill="none" xmlns="http://www.w3.org/2000/svg">
<g opacity="0.2">
<path d="M292.073 261.106L292.073 261.105C293.347 243.481 283.056 229.852 268.068 219.152C253.088 208.458 232.946 200.325 213.364 193.667C204.004 190.485 194.717 187.623 186.131 184.977L184.89 184.594C175.939 181.834 167.826 179.317 161.166 176.895C154.436 174.448 149.479 172.197 146.661 170.053C145.248 168.978 144.658 168.14 144.468 167.587C144.34 167.213 144.311 166.771 144.831 166.016C146.281 163.912 149.902 161.029 155.709 157.698C161.404 154.431 168.877 150.91 177.64 147.423C195.163 140.451 217.673 133.684 241.085 129.37C264.515 125.053 288.713 123.218 309.66 126.015C330.64 128.818 347.982 136.209 358.262 149.98C377.437 175.673 387.069 219.129 385.636 262.511C384.203 305.908 371.727 348.382 347.614 372.32C319.562 400.165 280.352 411.353 246.722 412.175C229.922 412.585 214.646 410.403 202.997 406.507C197.171 404.559 192.323 402.205 188.655 399.589C184.975 396.964 182.618 394.171 181.529 391.384L181.529 391.383C180.545 388.866 180.9 386.183 182.788 382.994C184.719 379.732 188.123 376.19 192.774 372.28C198.947 367.09 206.897 361.582 215.711 355.474C220.233 352.341 224.983 349.05 229.837 345.563C258.042 325.305 289.347 298.735 292.073 261.106Z" stroke="url(#paint0_linear_445_16202)" stroke-width="5"/>
<path d="M130.497 154.895L130.498 154.895C135.962 150.432 150.557 142.342 170.475 133.703C190.301 125.104 215.146 116.072 240.941 109.659C266.759 103.24 293.394 99.4771 316.85 101.318C340.312 103.159 360.274 110.574 373.235 126.182C396.65 154.394 410.462 205.039 410.757 254.779C411.052 304.599 397.791 352.359 368.348 375.409C333.096 402.958 291.822 416.794 257.669 421.587C240.593 423.983 225.376 424.107 213.655 422.592C207.791 421.834 202.866 420.674 199.046 419.22C195.178 417.747 192.678 416.063 191.377 414.411C190.948 413.864 190.79 413.336 190.811 412.724C190.835 412.041 191.092 411.122 191.756 409.91C193.104 407.445 195.759 404.424 199.576 400.736C202.939 397.485 207.037 393.872 211.629 389.823C212.196 389.323 212.771 388.816 213.353 388.302C218.625 383.649 224.437 378.474 230.339 372.761C253.894 349.961 279.323 318.185 278.267 275.223C277.773 254.991 266.579 238.124 250.907 224.069C235.237 210.017 214.826 198.531 195.285 189.041C185.5 184.288 175.893 180.017 167.171 176.168C166.396 175.827 165.629 175.488 164.87 175.154C157.053 171.707 150.053 168.621 144.321 165.818C137.949 162.702 133.47 160.086 131.177 157.895C130.013 156.783 129.784 156.124 129.76 155.894C129.759 155.886 129.662 155.577 130.497 154.895Z" stroke="url(#paint1_linear_445_16202)" stroke-width="5"/>
<path d="M389.054 378.535L389.053 378.535C346.451 405.71 302.588 422.663 267.619 431.654C250.132 436.15 234.919 438.642 223.24 439.438C217.397 439.836 212.491 439.805 208.655 439.407C204.733 438.999 202.236 438.234 200.955 437.4L200.53 437.123L200.164 437.057C200.165 437.057 200.165 437.057 200.165 437.056C200.787 435.581 202.552 433.225 205.504 429.764C206.934 428.087 208.593 426.206 210.425 424.128C215.889 417.932 222.898 409.984 229.999 400.467C249.017 374.977 269.173 337.65 264.47 289.432L264.47 289.432C262.229 266.488 250.077 246.395 233.804 229.062C217.529 211.726 196.971 196.976 177.575 184.705C167.868 178.564 158.425 173.027 149.932 168.092C148.851 167.464 147.786 166.846 146.738 166.237C139.535 162.057 133.15 158.352 127.969 155.083C121.943 151.28 117.893 148.274 116.039 145.994C115.103 144.844 115.12 144.352 115.122 144.334C115.122 144.334 115.122 144.334 115.122 144.334C115.122 144.333 115.123 144.331 115.124 144.328C115.129 144.318 115.15 144.277 115.21 144.209C115.34 144.061 115.624 143.817 116.191 143.527C117.707 142.756 119.518 141.821 121.601 140.747C142.382 130.026 190.2 105.356 241.286 89.8811C269.394 81.3663 298.328 75.6882 324.184 76.5849C350.024 77.481 372.522 84.9259 388.196 102.374L388.196 102.375C415.831 133.109 433.809 190.965 435.827 247.075C436.834 275.072 433.857 302.447 426.231 325.593C418.601 348.751 406.387 367.484 389.054 378.535ZM199.588 436.912C199.588 436.912 199.596 436.916 199.609 436.923C199.594 436.917 199.587 436.913 199.588 436.912Z" stroke="url(#paint2_linear_445_16202)" stroke-width="5"/>
<path d="M409.751 381.776C359.807 408.419 313.688 428.273 278.043 441.403C260.218 447.968 245.033 452.844 233.312 456.047C222.14 459.099 214.379 460.554 210.471 460.623C210.869 459.964 211.333 459.222 211.862 458.391C212.433 457.492 213.07 456.504 213.764 455.428C217.834 449.116 223.848 439.789 229.927 427.833C244.172 399.815 258.875 357.185 250.61 303.68L250.61 303.68C242.683 252.401 199.296 212.585 161.592 183.715C152.668 176.882 144.016 170.63 136.185 164.971C135.712 164.629 135.241 164.289 134.774 163.951C126.556 158.011 119.336 152.765 113.664 148.163C107.922 143.504 104.055 139.726 102.277 136.75C101.402 135.285 101.208 134.298 101.274 133.666C101.329 133.138 101.602 132.489 102.639 131.724C121.065 118.136 177.744 85.1744 239.249 65.5469C269.993 55.736 301.786 49.3083 330.522 50.2173C359.238 51.1257 384.683 59.3461 403.103 78.6017L403.104 78.6028C434.969 111.873 457.108 176.906 460.853 239.369C462.722 270.542 459.993 300.864 451.727 326.058C443.459 351.256 429.734 371.107 409.751 381.776ZM409.751 381.776L410.928 383.981M409.751 381.776L410.928 383.981M410.928 383.981C310.83 437.38 226.033 463.582 209.735 463.119L404.91 76.8736C469.778 144.602 493.873 339.697 410.928 383.981Z" stroke="url(#paint3_linear_445_16202)" stroke-width="5"/>
<path d="M430.393 384.935L430.393 384.935C453.033 374.627 468.266 353.641 477.17 326.401C486.075 299.155 488.559 265.886 485.835 231.538C483.112 197.209 475.198 161.938 463.424 130.745C451.639 99.5234 436.05 72.5514 418.081 54.6772L419.844 52.9048L418.081 54.6771C396.922 33.627 369.058 25.3069 338.104 25.2332C307.114 25.1593 273.204 33.3597 240.298 45.1657C185.39 64.8648 133.773 94.4036 103.757 111.581C97.7832 114.999 92.6651 117.928 88.5469 120.193C87.2206 120.923 86.7558 121.635 86.589 122.219C86.405 122.864 86.4373 123.866 87.0944 125.414C88.4439 128.595 91.8814 132.835 97.2538 138.211C103.454 144.415 111.741 151.677 121.287 160.041C128.218 166.115 135.813 172.77 143.755 180.025C181.175 214.205 225.435 260.962 236.819 317.859C236.819 317.86 236.819 317.86 236.819 317.861L234.368 318.351C249.776 395.059 227.533 451.251 217.839 475.739C212.796 488.48 211.15 492.639 219.97 486.641L430.393 384.935ZM430.393 384.935C416.389 391.313 402.894 397.451 389.962 403.333C350.023 421.498 315.46 437.217 287.891 450.015C269.643 458.485 254.441 465.684 242.762 471.471C231.133 477.232 222.858 481.659 218.566 484.573L218.564 484.574C217.87 485.046 217.266 485.437 216.743 485.755L430.393 384.935Z" stroke="url(#paint4_linear_445_16202)" stroke-width="5"/>
<path d="M433.014 30.8328L433.014 30.8325C409.145 8.04118 379.221 0.825859 346.426 3.09073C313.565 5.36018 277.996 17.1455 243.2 32.1711C215.7 44.046 188.832 57.8752 164.263 70.521C157.749 73.874 151.396 77.1438 145.236 80.2719C130.568 87.7208 116.98 94.3716 104.961 99.3852C92.9803 104.383 82.3736 107.836 73.7072 108.763M433.014 30.8328L73.4411 106.278M433.014 30.8328C453.072 49.9801 470.74 79.3724 484.299 113.494C497.846 147.585 507.222 186.227 510.802 223.721C514.384 261.237 512.148 297.453 502.602 326.761C493.063 356.051 476.32 378.197 451.007 388.174M433.014 30.8328L451.924 390.5M73.7072 108.763L73.4411 106.278M73.7072 108.763C73.7081 108.763 73.709 108.763 73.7098 108.763L73.4411 106.278M73.7072 108.763C71.7901 108.971 71.1981 109.458 71.056 109.635C71.0011 109.704 70.7366 110.055 71.0919 111.323C71.4489 112.597 72.3185 114.327 73.8088 116.559C75.2787 118.76 77.2575 121.311 79.6986 124.209C85.4252 131.007 93.4108 139.394 102.795 149.251C109.55 156.345 117.03 164.201 124.914 172.774C162.322 213.45 208.11 269.531 222.972 332.079L222.972 332.079C238.214 396.311 233.317 448.768 228.273 481.238C227.263 487.738 226.245 493.446 225.387 498.26C225.175 499.449 224.973 500.583 224.783 501.661C223.813 507.167 223.197 511.042 223.143 513.419M73.4411 106.278C59.8336 107.749 75.4338 124.136 101.076 151.071C140.224 192.194 202.778 257.902 220.539 332.657C238.714 409.247 228.067 468.98 222.928 497.812C219.504 517.017 218.525 522.511 230.137 510.142C248.235 490.978 322.933 441.315 451.924 390.5M223.143 513.419C222.428 513.977 222.009 514.203 221.825 514.265C221.82 514.266 221.817 514.268 221.814 514.268M223.143 513.419C223.143 513.432 223.143 513.444 223.142 513.457C223.12 514.575 223.244 514.943 223.234 514.947C223.233 514.948 223.228 514.939 223.218 514.923C223.119 514.753 222.851 514.441 222.38 514.305C222.07 514.216 221.855 514.258 221.814 514.268M223.143 513.419C223.376 513.237 223.639 513.02 223.936 512.762C225.081 511.768 226.521 510.341 228.314 508.431L228.319 508.426C237.638 498.558 261.113 481.201 298.206 460.019C335.378 438.792 386.41 413.622 451.007 388.174M221.814 514.268C221.809 514.27 221.807 514.27 221.807 514.27C221.807 514.271 221.809 514.27 221.814 514.268ZM451.007 388.174C451.007 388.174 451.007 388.174 451.007 388.174L451.924 390.5M451.007 388.174L451.924 390.5" stroke="url(#paint5_linear_445_16202)" stroke-width="5"/>
<path d="M471.618 391.402L471.618 391.402C327.813 440.971 258.677 504.222 238.342 532.337C234.329 537.882 231.65 540.872 229.94 542.002C229.75 542.128 229.601 542.211 229.488 542.266C229.43 542.157 229.36 542.004 229.28 541.793C228.59 539.95 228.217 536.303 228.086 530.541C227.984 526.03 228.029 520.501 228.081 513.988C228.094 512.365 228.108 510.68 228.12 508.935C228.359 474.02 227.918 416.081 209.196 346.43C190.851 278.187 144.283 215.082 107.305 169.079C101.313 161.624 95.5856 154.633 90.2699 148.146C79.1017 134.515 69.7505 123.102 63.5751 114.255C61.3107 111.011 59.5168 108.172 58.2359 105.743C56.9375 103.281 56.2524 101.4 56.0568 100.039C55.8677 98.7245 56.1716 98.275 56.379 98.0733C56.7023 97.7587 57.5812 97.2827 59.7136 97.2048L59.714 97.2048C69.8117 96.834 81.7695 93.4732 95.042 88.2399C108.348 82.9934 123.163 75.7873 139.019 67.58C149.222 62.2987 159.851 56.6057 170.807 50.738C193.995 38.3193 218.644 25.1179 243.801 13.3799C280.821 -3.893 318.601 -17.8248 353.806 -21.2433C388.933 -24.6541 421.336 -17.5927 447.956 6.95806C470.103 27.4085 489.849 59.2366 505.181 96.2633C520.5 133.259 531.337 175.267 535.774 215.92C540.213 256.598 538.225 295.753 528.04 327.116C517.866 358.449 499.613 381.756 471.618 391.402ZM229.209 542.371C229.209 542.371 229.213 542.37 229.221 542.369C229.213 542.371 229.209 542.371 229.209 542.371ZM229.646 542.51C229.649 542.512 229.65 542.513 229.65 542.513C229.65 542.514 229.649 542.513 229.646 542.51Z" stroke="url(#paint6_linear_445_16202)" stroke-width="5"/>
<path d="M248.423 556.076L248.423 556.077L45.7655 83.048L45.7135 85.5474C45.7137 85.5474 45.7139 85.5475 45.714 85.5475C57.2159 85.7865 70.5086 82.5633 85.0666 77.1273C99.653 71.6808 115.693 63.9411 132.735 54.9896C146.585 47.7145 161.049 39.6684 175.967 31.3694C197.946 19.143 220.911 6.36753 244.356 -5.30109C283.61 -24.8372 323.616 -40.945 361.173 -45.5366C398.64 -50.1172 433.523 -43.2286 462.879 -16.918C487.1 4.80989 508.918 39.0592 526.021 78.9835C543.11 118.875 555.413 164.251 560.713 208.067C566.016 251.912 564.286 294.017 553.469 327.449C542.666 360.839 522.908 385.328 492.223 394.657C333.692 442.848 270.68 519.478 248.423 556.076Z" stroke="url(#paint7_linear_445_16202)" stroke-width="5"/>
<path d="M258.544 579.768L258.543 579.769C253.921 588.4 250.125 593.888 246.978 596.795C245.417 598.238 244.186 598.884 243.26 599.091C242.433 599.276 241.686 599.152 240.86 598.626C239.953 598.049 238.915 596.956 237.787 595.131C236.67 593.325 235.552 590.945 234.423 587.973C232.162 582.024 229.96 573.983 227.623 564.035C225.207 553.747 222.667 541.494 219.782 527.583C211.543 487.85 200.501 434.595 181.556 375.017C156.224 295.36 107.963 218.24 71.8347 161.611C70.3531 159.289 68.8925 157.002 67.4553 154.751C51.31 129.471 38.1065 108.798 31.0608 94.2571C29.1515 90.3167 27.7279 86.8927 26.8246 83.9978C25.911 81.0698 25.5861 78.8569 25.715 77.2762C25.837 75.7796 26.3344 75.0506 26.9738 74.6185C27.7344 74.1047 29.1648 73.6937 31.7303 73.867L31.8989 71.3728L31.7307 73.8671C44.6084 74.7357 59.2163 71.6702 75.0478 66.0458C90.9016 60.4135 108.158 52.1501 126.38 42.4602C143.402 33.4088 161.335 23.0756 179.811 12.4293C181.118 11.6762 182.427 10.9216 183.74 10.1657C203.619 -1.28521 224.106 -13.0253 244.834 -23.9194C286.327 -45.7269 328.57 -64.0254 368.493 -69.8035C408.315 -75.5671 445.691 -68.8627 477.794 -40.7962C504.117 -17.7834 528.02 18.8899 546.899 61.7115C565.764 104.499 579.529 153.24 585.685 200.216C591.846 247.224 590.363 292.277 578.906 327.78C567.467 363.226 546.194 388.905 512.812 397.92C426.242 421.293 368.708 455.443 329.773 489.46C290.836 523.48 270.605 557.278 258.544 579.768Z" stroke="url(#paint8_linear_445_16202)" stroke-width="5"/>
<path d="M492.713 -64.6601L492.713 -64.6606C457.872 -94.479 418.004 -100.984 375.818 -94.0184C333.524 -87.0347 289.033 -66.5224 245.293 -42.4279C224.214 -30.8157 203.363 -18.4033 183.05 -6.31122L180.821 -4.98407C159.822 7.51517 139.405 19.6314 120 30.0586C100.599 40.4835 82.1323 49.2628 65.0201 55.0678C47.9244 60.8671 32.016 63.7558 17.7838 62.237C14.9943 61.9394 13.2976 62.3069 12.3017 62.891C11.4181 63.4092 10.7699 64.283 10.4855 65.905C10.1858 67.6142 10.3307 70.0057 11.0517 73.169C11.7656 76.3013 13.0039 80.0204 14.7352 84.3097C21.6905 101.541 36.1322 126.867 54.0433 157.921C55.0919 159.739 56.152 161.576 57.2228 163.431C92.6286 224.785 139.767 306.47 167.754 389.347C182.268 432.331 193.635 472.362 203.139 506.921C204.929 513.429 206.651 519.738 208.315 525.835C215.501 552.157 221.602 574.504 227.329 591.641C230.857 602.194 234.202 610.645 237.518 616.775C240.9 623.029 243.98 626.338 246.712 627.415C249.026 628.326 251.812 627.86 255.599 624.116C259.429 620.329 263.762 613.633 268.716 603.461C268.716 603.46 268.716 603.46 268.716 603.46L492.713 -64.6601ZM492.713 -64.6601C521.125 -40.3586 547.111 -1.26769 567.769 44.4403M492.713 -64.6601L567.769 44.4403M567.769 44.4403C588.41 90.1134 603.645 142.204 610.666 192.33M567.769 44.4403L610.666 192.33M610.666 192.33C617.691 242.49 616.463 290.484 604.364 328.058M610.666 192.33L604.364 328.058M604.364 328.058C592.288 365.562 569.493 392.444 533.387 401.169L604.364 328.058Z" stroke="url(#paint9_linear_445_16202)" stroke-width="5"/>
<path d="M507.624 -88.5442L507.625 -88.5437C538.136 -62.9519 566.204 -21.431 588.634 27.1785C611.047 75.7523 627.741 131.212 635.617 184.5C643.498 237.825 642.519 288.769 629.782 328.412C617.071 367.973 592.764 396.043 553.961 404.44C452.792 426.323 390.996 466.33 350.964 508.833C314.208 547.859 295.923 588.882 282.352 619.327C281.159 622.002 280.003 624.596 278.874 627.1L278.874 627.1C273.594 638.812 268.736 646.705 264.233 651.367C259.769 655.989 256.026 657.096 252.686 656.261C249.066 655.357 245.047 651.997 240.616 645.59C236.243 639.268 231.752 630.4 227.034 619.242C217.601 596.934 207.453 565.961 195.579 529.03C194.431 525.461 193.268 521.837 192.088 518.161C181.069 483.842 168.588 444.966 153.929 403.67C125.068 322.363 82.082 241.051 48.0748 176.722C43.972 168.962 39.9999 161.448 36.199 154.211C18.4987 120.511 4.59395 92.9682 -1.64241 74.3327C-3.1952 69.6926 -4.24746 65.6757 -4.77094 62.3022C-5.29882 58.9004 -5.26118 56.3221 -4.78292 54.4751C-4.32644 52.7124 -3.50165 51.6995 -2.36761 51.1109C-1.13182 50.4695 0.826143 50.1488 3.84366 50.5696C19.4036 52.7489 36.5909 50.0484 54.9333 44.084C73.2875 38.1157 92.9526 28.8274 113.523 17.6726C134.098 6.51486 155.657 -6.55375 177.787 -20.1088C180.374 -21.6932 182.968 -23.2843 185.57 -24.8798C205.246 -36.9458 225.341 -49.2685 245.635 -60.9112C291.625 -87.2953 338.376 -110.029 383.062 -118.227C427.631 -126.404 470.019 -120.107 507.624 -88.5442Z" stroke="url(#paint10_linear_445_16202)" stroke-width="5"/>
<path d="M-10.0713 38.9563L-10.07 38.9565C23.6007 44.6074 63.7571 29.0208 107.094 5.3262C132.793 -8.72491 159.966 -25.8444 187.84 -43.4059C206.987 -55.469 226.465 -67.7406 246.023 -79.3695C294.258 -108.048 343.263 -133.008 390.332 -142.425C437.277 -151.818 482.173 -145.734 522.534 -112.43C555.119 -85.5403 585.259 -41.591 609.46 9.91409C633.644 61.383 651.806 120.202 660.548 176.645C669.295 233.128 668.577 287.017 655.207 328.733C641.867 370.353 616.046 399.625 574.526 407.714C466.071 428.838 402.146 471.759 361.575 518.5C326.674 558.709 309.159 601.665 295.421 635.355C293.221 640.751 291.117 645.91 289.055 650.781C283.441 664.031 278.057 673.117 272.882 678.653C267.745 684.149 263.096 685.877 258.741 685.204C254.19 684.5 249.197 681.08 243.716 674.499C238.28 667.973 232.644 658.68 226.737 646.914C214.927 623.391 202.26 590.459 188.033 551.195C182.657 536.357 177.057 520.612 171.2 504.147C161.586 477.117 151.281 448.145 140.139 418.048C111.291 340.11 72.6332 261.359 40.4486 195.795C32.6225 179.852 25.1791 164.689 18.3526 150.507C0.858036 114.162 -12.5111 84.4088 -18.0298 64.3733C-19.4042 59.3837 -20.2704 55.0691 -20.6029 51.4542C-20.9378 47.8135 -20.7149 45.0456 -20.0511 43.0582C-19.4137 41.1497 -18.3958 40.009 -17.0112 39.3652C-15.5347 38.6787 -13.3199 38.4095 -10.0713 38.9563Z" stroke="url(#paint11_linear_445_16202)" stroke-width="5"/>
<path d="M537.445 -136.299L537.445 -136.298C572.111 -108.138 604.327 -61.7762 630.302 -7.38446C656.259 46.9703 675.888 109.146 685.494 168.747C695.106 228.389 694.645 285.23 680.638 329.023C666.664 372.71 639.324 403.19 595.079 410.972C479.338 431.326 413.296 477.158 372.193 528.133C338.667 569.711 321.818 614.669 308.083 651.318C305.027 659.471 302.126 667.213 299.229 674.415C293.277 689.198 287.368 699.473 281.523 705.883C275.714 712.253 270.19 714.591 264.839 714.131C259.343 713.659 253.356 710.192 246.819 703.43C240.316 696.702 233.534 686.986 226.439 674.617C202.734 633.289 176.345 563.851 145.396 482.412C139.219 466.158 132.86 449.425 126.304 432.343C98.6495 360.279 64.7614 286.926 35.0856 222.691C22.5192 195.491 10.7081 169.925 0.445507 146.784C-16.849 107.788 -29.6862 75.8114 -34.4884 54.3589C-35.6845 49.0154 -36.3645 44.3979 -36.505 40.5355C-36.6463 36.6502 -36.2349 33.6846 -35.3784 31.5494C-34.551 29.4869 -33.3265 28.2229 -31.69 27.5312C-29.9713 26.8048 -27.5019 26.5864 -24.0193 27.2572C12.3022 34.2514 54.8998 18.1153 100.584 -7.0312C128.979 -22.6612 158.924 -41.9913 189.594 -61.7899C208.304 -73.8677 227.284 -86.1199 246.348 -97.8127C296.839 -128.783 348.113 -155.972 397.577 -166.609C446.912 -177.219 494.326 -171.348 537.445 -136.299Z" stroke="url(#paint12_linear_445_16202)" stroke-width="5"/>
<path d="M-37.9118 15.5847L-37.9112 15.5849C1.02281 23.9037 46.0379 7.20619 94.0553 -19.403C125.027 -36.566 157.612 -58.0767 190.942 -80.0792C209.329 -92.2173 227.943 -104.505 246.638 -116.295C299.387 -149.562 352.937 -178.982 404.805 -190.838C456.539 -202.664 506.483 -197 552.368 -160.192L553.933 -162.142L552.369 -160.192C589.124 -130.714 623.42 -81.9144 651.169 -24.6251C678.899 32.6268 699.994 98.1577 710.46 160.908C720.934 223.702 720.727 283.481 706.079 329.344C691.469 375.088 662.605 406.772 615.634 414.249C492.612 433.834 424.453 482.564 382.822 537.753C350.337 580.819 334.071 627.815 320.427 667.236C316.65 678.147 313.075 688.477 309.412 697.982C303.119 714.308 296.681 725.771 290.162 733.051C283.68 740.29 277.295 743.217 270.958 742.987C264.507 742.754 257.504 739.237 249.898 732.267C242.316 725.319 234.381 715.164 226.094 702.177C193.354 650.868 156.334 557.375 114.293 451.2L112.501 446.673C91.0452 392.478 67.0875 337.358 44.2328 285.403C40.5174 276.957 36.8316 268.596 33.1905 260.335C14.4249 217.765 -3.15214 177.891 -17.4491 143.061C-34.5442 101.415 -46.8474 67.2177 -50.9293 44.3495C-52.9904 32.8023 -52.8358 24.7241 -50.6712 20.0425C-49.6461 17.8254 -48.2062 16.446 -46.3177 15.7145C-44.3552 14.9544 -41.6319 14.7889 -37.9118 15.5847Z" stroke="url(#paint13_linear_445_16202)" stroke-width="5"/>
<path d="M319.544 721.615L319.543 721.616C312.909 739.481 305.944 752.132 298.754 760.284C291.601 768.395 284.369 771.907 277.06 771.929C269.658 771.951 261.635 768.402 252.956 761.225C244.293 754.062 235.204 743.47 225.727 729.869C187.757 675.38 144.844 574.554 98.6462 461.019C78.6508 411.877 57.3066 361.888 36.7845 313.824C9.59111 250.137 -16.159 189.829 -35.4151 139.351C-52.3126 95.0552 -64.0824 58.6391 -67.4439 34.3552C-69.1395 22.1061 -68.6022 13.5157 -66.0288 8.54765C-64.8009 6.17708 -63.1406 4.68942 -61.0023 3.92493C-58.797 3.13643 -55.8223 3.02584 -51.8638 3.94852C-10.3193 13.6337 37.0972 -3.56989 87.4296 -31.5952C120.96 -50.2651 156.157 -73.967 192.117 -98.1825C210.181 -110.347 228.438 -122.641 246.772 -134.492C301.763 -170.036 357.581 -201.691 411.866 -214.806C466.009 -227.887 518.51 -222.505 567.218 -184.071C606.02 -153.228 642.378 -101.968 671.899 -41.774C701.401 18.3825 723.976 87.2604 735.324 153.147C746.68 219.078 746.754 281.777 731.486 329.692C716.26 377.478 685.888 410.355 636.187 417.526C505.901 436.317 435.629 487.945 393.464 547.36C361.792 591.988 346.027 641.053 332.502 683.144C328.102 696.836 323.939 709.791 319.544 721.615Z" stroke="url(#paint14_linear_445_16202)" stroke-width="5"/>
<path d="M656.728 420.788L657.052 423.267L656.728 420.788C519.175 438.805 446.795 493.334 404.117 556.976C382.826 588.725 368.994 622.641 358.11 655.181C353.109 670.136 348.721 684.827 344.525 698.877C344.157 700.109 343.791 701.336 343.425 702.558C338.888 717.735 334.537 732.103 329.8 745.292C322.823 764.693 315.331 778.528 307.47 787.551C299.644 796.532 291.572 800.623 283.3 800.907C274.95 801.194 265.9 797.622 256.142 790.236C246.394 782.858 236.149 771.83 225.48 757.616C182.74 700.675 134.525 594.461 84.9166 475.413C73.6967 448.494 62.2338 421.271 50.8248 394.175C11.3925 300.528 -27.3963 208.409 -53.2832 135.651C-69.9872 88.7025 -81.2256 50.0636 -83.8661 24.3582C-85.1968 11.4044 -84.2731 2.29633 -81.283 -2.96179C-79.8472 -5.48669 -77.9618 -7.07891 -75.5736 -7.87331C-73.1247 -8.68791 -69.8988 -8.74416 -65.6995 -7.69563C-21.5459 3.35763 28.2888 -14.3823 80.9566 -43.8626C116.988 -64.0308 154.727 -89.9287 193.24 -116.358C211.067 -128.592 229.059 -140.939 247.125 -152.885C304.376 -190.74 362.47 -224.646 419.157 -238.994C475.699 -253.305 530.725 -248.138 582.19 -207.936C623.066 -175.805 661.493 -122.128 692.779 -59.0487C724.048 3.99476 748.084 76.2257 760.29 145.264C772.504 214.348 772.831 279.993 756.922 329.984C741.057 379.836 709.159 413.925 656.728 420.788Z" stroke="url(#paint15_linear_445_16202)" stroke-width="5"/>
<path d="M-79.599 -19.3802C-32.8588 -6.99919 19.3862 -25.2793 74.3901 -56.2047C112.866 -77.8372 153.08 -105.897 194.08 -134.504C211.733 -146.822 229.532 -159.241 247.4 -171.293C306.918 -211.435 367.299 -247.572 426.391 -263.151C485.334 -278.692 542.88 -273.759 597.084 -231.849C640.06 -198.428 680.579 -142.326 713.651 -76.3544C746.703 -10.4212 772.215 65.1656 785.289 137.359C798.371 209.6 798.955 278.196 782.401 330.269C774.132 356.28 761.618 378.076 744.341 394.179C727.087 410.26 704.968 420.774 677.272 424.069C532.46 441.291 457.973 498.711 414.769 566.554C393.219 600.392 379.521 636.717 368.707 671.675C364.183 686.3 360.156 700.715 356.275 714.605C355.519 717.311 354.768 719.997 354.021 722.662C349.43 739.021 344.952 754.542 339.962 768.813L342.322 769.638L339.962 768.813C332.643 789.755 324.62 804.782 316.077 814.683C307.57 824.543 298.649 829.218 289.405 829.779C280.092 830.344 269.995 826.764 259.138 819.174C248.287 811.589 236.869 800.132 224.995 785.309C177.434 725.936 123.916 614.334 71.1025 489.699L71.0992 489.691C17.3668 364.091 -38.4732 231.06 -71.415 131.949C-87.9031 82.3416 -98.5722 41.467 -100.454 14.329C-101.402 0.665009 -100.072 -8.9674 -96.6449 -14.5192C-94.9903 -17.1996 -92.8696 -18.8946 -90.2252 -19.7163C-87.5259 -20.5551 -84.044 -20.5557 -79.599 -19.3802ZM-79.599 -19.3802L-78.9588 -21.7969M-79.599 -19.3802C-79.5986 -19.3801 -79.5984 -19.3801 -79.598 -19.38L-78.9588 -21.7969M-78.9588 -21.7969C-154.733 -41.8386 -38.6477 239.512 68.8007 490.674L598.619 -233.822C472.172 -331.595 327.463 -230.623 192.53 -136.473C92.9525 -66.9916 -1.3005 -1.22586 -78.9588 -21.7969Z" stroke="url(#paint16_linear_445_16202)" stroke-width="5"/>
<path d="M57.2821 504.041L57.2796 504.035C0.0708606 372.666 -56.7419 232.608 -89.3032 128.199C-105.601 75.9404 -115.747 32.844 -116.919 4.28389C-117.509 -10.0861 -115.794 -20.2383 -111.948 -26.0778C-110.084 -28.9089 -107.739 -30.6986 -104.853 -31.5423C-101.917 -32.4009 -98.1914 -32.3453 -93.509 -31.0417C-44.1823 -17.3107 10.4697 -36.135 67.8048 -68.5206C108.684 -91.6112 151.323 -121.84 194.757 -152.632C212.278 -165.053 229.929 -177.567 247.645 -189.74C309.428 -232.192 372.094 -270.577 433.596 -287.385C494.946 -304.151 555.023 -299.426 611.985 -255.741C657.058 -221.034 699.655 -162.537 734.495 -93.707C769.315 -24.9161 796.283 53.9893 810.212 129.313C824.15 204.686 824.986 276.221 807.795 330.396C799.208 357.456 786.155 380.09 768.084 396.744C750.036 413.377 726.862 424.158 697.809 427.35C545.711 443.513 469.119 503.821 425.403 575.941C403.604 611.906 390.047 650.696 379.314 688.126C375.178 702.549 371.474 716.714 367.885 730.438C362.119 752.487 356.65 773.399 350.167 792.418C334.756 837.614 315.949 857.022 295.615 858.684C285.361 859.523 274.236 855.931 262.294 848.128C250.355 840.327 237.78 828.431 224.714 812.993C172.384 751.157 113.56 634.171 57.2821 504.041Z" stroke="url(#paint17_linear_445_16202)" stroke-width="5"/>
<path d="M43.4847 518.38L43.4828 518.375C-17.2175 381.256 -75.0258 234.176 -107.217 124.46C-123.328 69.5475 -132.952 24.2246 -133.408 -5.76265C-133.637 -20.8415 -131.53 -31.516 -127.256 -37.6441C-125.176 -40.6257 -122.601 -42.5087 -119.47 -43.3733C-116.292 -44.2508 -112.319 -44.1388 -107.393 -42.7074C-55.4897 -27.6208 1.56596 -46.9781 61.2319 -80.8134C104.498 -105.349 149.539 -137.745 195.384 -170.72C212.794 -183.242 230.319 -195.848 247.908 -208.139C311.958 -252.895 376.911 -293.527 440.823 -311.57C504.579 -329.57 567.183 -325.066 626.893 -279.632C674.054 -243.631 718.732 -182.705 755.348 -110.979C791.945 -39.2912 820.383 42.9777 835.177 121.46C849.98 199.993 851.074 274.478 833.243 330.726C824.336 358.821 810.739 382.27 791.865 399.439C773.015 416.587 748.774 427.588 718.346 430.613C559.001 446.047 480.316 509.222 436.083 585.522C414.029 623.565 400.606 664.754 389.941 704.61C386.164 718.726 382.741 732.636 379.408 746.179C373.295 771.015 367.486 794.62 360.353 816.007C344.261 864.265 324.032 885.38 301.823 887.594C290.631 888.71 278.479 885.113 265.451 877.096C252.425 869.08 238.692 856.746 224.436 840.69C167.34 776.388 103.218 654.01 43.4847 518.38Z" stroke="url(#paint18_linear_445_16202)" stroke-width="5"/>
<path d="M29.6688 532.664L29.6675 532.662C-34.576 389.782 -93.3803 235.698 -125.187 120.691C-141.106 63.1324 -150.196 15.5924 -149.924 -15.8145C-149.788 -31.5987 -147.282 -42.7923 -142.572 -49.2052C-140.274 -52.3345 -137.467 -54.3078 -134.089 -55.1906C-130.668 -56.0846 -126.445 -55.9149 -121.274 -54.3542L-120.552 -56.7476L-121.274 -54.3542C-66.8061 -37.9203 -7.35411 -57.8107 54.6389 -93.0933C100.26 -119.058 147.664 -153.61 195.882 -188.754C213.214 -201.388 230.652 -214.098 248.15 -226.513C314.469 -273.568 381.714 -316.445 448.038 -335.723C514.205 -354.956 579.339 -350.679 641.798 -303.508C691.059 -266.226 737.825 -202.878 776.22 -128.258C814.595 -53.6768 844.501 31.9555 860.157 113.598C875.823 195.294 877.171 272.733 858.695 331.059C849.467 360.192 835.325 384.459 815.647 402.146C795.994 419.811 770.686 431.035 738.885 433.894C655.659 441.241 593.814 461.415 547.161 489.878C500.489 518.352 469.151 555.043 446.834 595.21C424.537 635.343 411.252 678.934 400.644 721.196C397.218 734.846 394.076 748.331 391.005 761.515C384.537 789.277 378.379 815.708 370.528 839.553L370.525 839.562C353.838 890.907 332.238 913.725 308.184 916.496C296.071 917.891 282.895 914.291 268.779 906.057C254.664 897.823 239.768 885.046 224.312 868.369C162.414 801.579 92.9046 673.783 29.6688 532.664Z" stroke="url(#paint19_linear_445_16202)" stroke-width="5"/>
<path d="M-135.139 -65.9448L-135.138 -65.9446C-78.1104 -48.1783 -16.2674 -68.6188 48.0472 -105.365C95.9845 -132.754 145.706 -169.455 196.25 -206.764C213.543 -219.528 230.933 -232.364 248.38 -244.922C316.965 -294.288 386.5 -339.416 455.237 -359.928C523.814 -380.393 591.482 -376.332 656.695 -327.402C708.067 -288.843 756.926 -223.068 797.104 -145.549C837.261 -68.0683 868.636 20.935 885.153 105.745C901.681 190.609 903.28 271.007 884.158 331.412C874.606 361.584 859.917 386.667 839.434 404.869C818.975 423.049 792.597 434.49 759.421 437.177C672.562 444.139 608.364 464.836 560.198 494.448C512.012 524.072 480.013 562.533 457.435 604.79C434.876 647.01 421.726 693.013 411.201 737.715C408.035 751.161 405.11 764.469 402.242 777.521C395.547 807.98 389.16 837.044 380.73 863.216L380.728 863.22C363.312 917.606 340.265 942.11 314.327 945.439C301.272 947.115 287.063 943.516 271.857 935.072C256.649 926.627 240.596 913.416 223.951 896.127C157.295 826.892 82.5326 693.744 15.8836 547.14L15.8831 547.139C-51.812 398.441 -111.621 237.321 -143.075 117.002C-158.816 56.7871 -167.391 7.02276 -166.407 -25.8094C-165.913 -42.3022 -163.012 -54.0168 -157.869 -60.7145C-155.353 -63.9908 -152.314 -66.0525 -148.691 -66.9522C-145.027 -67.862 -140.556 -67.6346 -135.139 -65.9448Z" stroke="url(#paint20_linear_445_16202)" stroke-width="5"/>
<path d="M779.949 440.441L780.132 442.935L779.949 440.441C689.495 447.059 622.963 468.3 573.293 499.07C523.603 529.852 490.939 570.079 468.092 614.413C445.265 658.707 432.237 707.103 421.783 754.222C418.845 767.466 416.113 780.592 413.426 793.498C406.53 826.631 399.935 858.313 390.934 886.797L393.317 887.551L390.934 886.797C372.639 944.696 347.908 970.838 319.814 974.401C305.671 976.195 290.262 972.355 273.789 963.386C257.315 954.417 239.923 940.396 221.912 922.078C149.79 848.729 69.0754 707.908 -1.26941 554.148C-71.5794 400.463 -131.372 234.205 -161.753 110.233C-176.957 48.1916 -184.734 -3.02486 -182.892 -36.7329C-181.967 -53.6586 -178.635 -65.674 -173.067 -72.516C-170.338 -75.87 -167.079 -77.974 -163.229 -78.8641C-159.342 -79.7628 -154.652 -79.4683 -149.032 -77.6638C-89.4374 -58.5338 -25.197 -79.4973 41.4449 -117.686C91.707 -146.488 143.75 -185.345 196.625 -224.822C213.877 -237.702 231.217 -250.649 248.613 -263.334C319.468 -315.001 391.296 -362.376 462.449 -384.123C533.439 -405.82 603.643 -401.981 671.614 -351.302C725.068 -311.442 776.005 -243.238 817.957 -162.823C859.888 -82.4488 892.732 9.91215 910.114 97.8757C927.507 185.894 929.366 269.24 909.603 331.719C899.731 362.928 884.498 388.829 863.212 407.55C841.949 426.25 814.501 437.915 779.949 440.441Z" stroke="url(#paint21_linear_445_16202)" stroke-width="5"/>
</g>
<defs>
<linearGradient id="paint0_linear_445_16202" x1="309.39" y1="402.873" x2="235.509" y2="127.144" gradientUnits="userSpaceOnUse">
<stop stop-color="#1BCA52"/>
<stop offset="0.5" stop-color="#0F72EC"/>
<stop offset="1" stop-color="#159F9D" stop-opacity="0"/>
</linearGradient>
<linearGradient id="paint1_linear_445_16202" x1="325.253" y1="407.875" x2="244.387" y2="106.081" gradientUnits="userSpaceOnUse">
<stop stop-color="#1BCA52"/>
<stop offset="0.5" stop-color="#0F72EC"/>
<stop offset="1" stop-color="#159F9D" stop-opacity="0"/>
</linearGradient>
<linearGradient id="paint2_linear_445_16202" x1="338.356" y1="415.307" x2="249.793" y2="84.7863" gradientUnits="userSpaceOnUse">
<stop stop-color="#1BCA52"/>
<stop offset="0.5" stop-color="#0F72EC"/>
<stop offset="1" stop-color="#159F9D" stop-opacity="0"/>
</linearGradient>
<linearGradient id="paint3_linear_445_16202" x1="349.133" y1="427.605" x2="250.49" y2="59.4652" gradientUnits="userSpaceOnUse">
<stop stop-color="#1BCA52"/>
<stop offset="0.5" stop-color="#0F72EC"/>
<stop offset="1" stop-color="#159F9D" stop-opacity="0"/>
</linearGradient>
<linearGradient id="paint4_linear_445_16202" x1="362.31" y1="449.844" x2="251.929" y2="37.8975" gradientUnits="userSpaceOnUse">
<stop stop-color="#1BCA52"/>
<stop offset="0.5" stop-color="#0F72EC"/>
<stop offset="1" stop-color="#159F9D" stop-opacity="0"/>
</linearGradient>
<linearGradient id="paint5_linear_445_16202" x1="376.325" y1="475.456" x2="254.589" y2="21.1304" gradientUnits="userSpaceOnUse">
<stop stop-color="#1BCA52"/>
<stop offset="0.5" stop-color="#0F72EC"/>
<stop offset="1" stop-color="#159F9D" stop-opacity="0"/>
</linearGradient>
<linearGradient id="paint6_linear_445_16202" x1="390.595" y1="501.718" x2="256" y2="-0.599554" gradientUnits="userSpaceOnUse">
<stop stop-color="#1BCA52"/>
<stop offset="0.5" stop-color="#0F72EC"/>
<stop offset="1" stop-color="#159F9D" stop-opacity="0"/>
</linearGradient>
<linearGradient id="paint7_linear_445_16202" x1="404.805" y1="528.107" x2="257.274" y2="-22.4858" gradientUnits="userSpaceOnUse">
<stop stop-color="#1BCA52"/>
<stop offset="0.5" stop-color="#0F72EC"/>
<stop offset="1" stop-color="#159F9D" stop-opacity="0"/>
</linearGradient>
<linearGradient id="paint8_linear_445_16202" x1="418.961" y1="554.604" x2="258.43" y2="-44.5067" gradientUnits="userSpaceOnUse">
<stop stop-color="#1BCA52"/>
<stop offset="0.5" stop-color="#0F72EC"/>
<stop offset="1" stop-color="#159F9D" stop-opacity="0"/>
</linearGradient>
<linearGradient id="paint9_linear_445_16202" x1="433.037" y1="581.227" x2="259.46" y2="-66.5723" gradientUnits="userSpaceOnUse">
<stop stop-color="#1BCA52"/>
<stop offset="0.5" stop-color="#0F72EC"/>
<stop offset="1" stop-color="#159F9D" stop-opacity="0"/>
</linearGradient>
<linearGradient id="paint10_linear_445_16202" x1="446.975" y1="607.893" x2="260.319" y2="-88.7173" gradientUnits="userSpaceOnUse">
<stop stop-color="#1BCA52"/>
<stop offset="0.5" stop-color="#0F72EC"/>
<stop offset="1" stop-color="#159F9D" stop-opacity="0"/>
</linearGradient>
<linearGradient id="paint11_linear_445_16202" x1="460.787" y1="634.679" x2="261.014" y2="-110.886" gradientUnits="userSpaceOnUse">
<stop stop-color="#1BCA52"/>
<stop offset="0.5" stop-color="#0F72EC"/>
<stop offset="1" stop-color="#159F9D" stop-opacity="0"/>
</linearGradient>
<linearGradient id="paint12_linear_445_16202" x1="474.439" y1="661.492" x2="261.536" y2="-133.072" gradientUnits="userSpaceOnUse">
<stop stop-color="#1BCA52"/>
<stop offset="0.5" stop-color="#0F72EC"/>
<stop offset="1" stop-color="#159F9D" stop-opacity="0"/>
</linearGradient>
<linearGradient id="paint13_linear_445_16202" x1="487.929" y1="688.296" x2="261.883" y2="-155.316" gradientUnits="userSpaceOnUse">
<stop stop-color="#1BCA52"/>
<stop offset="0.5" stop-color="#0F72EC"/>
<stop offset="1" stop-color="#159F9D" stop-opacity="0"/>
</linearGradient>
<linearGradient id="paint14_linear_445_16202" x1="501.164" y1="715.249" x2="262" y2="-177.323" gradientUnits="userSpaceOnUse">
<stop stop-color="#1BCA52"/>
<stop offset="0.5" stop-color="#0F72EC"/>
<stop offset="1" stop-color="#159F9D" stop-opacity="0"/>
</linearGradient>
<linearGradient id="paint15_linear_445_16202" x1="514.358" y1="742.294" x2="262.005" y2="-199.501" gradientUnits="userSpaceOnUse">
<stop stop-color="#1BCA52"/>
<stop offset="0.5" stop-color="#0F72EC"/>
<stop offset="1" stop-color="#159F9D" stop-opacity="0"/>
</linearGradient>
<linearGradient id="paint16_linear_445_16202" x1="527.246" y1="769.282" x2="261.734" y2="-221.622" gradientUnits="userSpaceOnUse">
<stop stop-color="#1BCA52"/>
<stop offset="0.5" stop-color="#0F72EC"/>
<stop offset="1" stop-color="#159F9D" stop-opacity="0"/>
</linearGradient>
<linearGradient id="paint17_linear_445_16202" x1="540.052" y1="796.363" x2="261.335" y2="-243.82" gradientUnits="userSpaceOnUse">
<stop stop-color="#1BCA52"/>
<stop offset="0.5" stop-color="#0F72EC"/>
<stop offset="1" stop-color="#159F9D" stop-opacity="0"/>
</linearGradient>
<linearGradient id="paint18_linear_445_16202" x1="552.673" y1="823.502" x2="260.758" y2="-265.938" gradientUnits="userSpaceOnUse">
<stop stop-color="#1BCA52"/>
<stop offset="0.5" stop-color="#0F72EC"/>
<stop offset="1" stop-color="#159F9D" stop-opacity="0"/>
</linearGradient>
<linearGradient id="paint19_linear_445_16202" x1="565.136" y1="850.72" x2="260.016" y2="-288.004" gradientUnits="userSpaceOnUse">
<stop stop-color="#1BCA52"/>
<stop offset="0.5" stop-color="#0F72EC"/>
<stop offset="1" stop-color="#159F9D" stop-opacity="0"/>
</linearGradient>
<linearGradient id="paint20_linear_445_16202" x1="577.494" y1="877.957" x2="259.153" y2="-310.109" gradientUnits="userSpaceOnUse">
<stop stop-color="#1BCA52"/>
<stop offset="0.5" stop-color="#0F72EC"/>
<stop offset="1" stop-color="#159F9D" stop-opacity="0"/>
</linearGradient>
<linearGradient id="paint21_linear_445_16202" x1="589.688" y1="905.175" x2="258.141" y2="-332.175" gradientUnits="userSpaceOnUse">
<stop stop-color="#1BCA52"/>
<stop offset="0.5" stop-color="#0F72EC"/>
<stop offset="1" stop-color="#159F9D" stop-opacity="0"/>
</linearGradient>
</defs>
</svg>
